<?xml version="1.0" standalone="no"?>
<!DOCTYPE svg PUBLIC "-//W3C//DTD SVG 20010904//EN"
 "http://www.w3.org/TR/2001/REC-SVG-20010904/DTD/svg10.dtd">
<svg version="1.0" xmlns="http://www.w3.org/2000/svg"
 width="398.000000pt" height="398.000000pt" viewBox="0 0 398.000000 398.000000"
 preserveAspectRatio="xMidYMid meet">
<metadata>
Created by potrace 1.14, written by Peter Selinger 2001-2017
</metadata>
<g transform="translate(0.000000,398.000000) scale(0.100000,-0.100000)"
fill="#000000" stroke="none">
<path d="M1965 3550 c-33 -3 -76 -14 -95 -22 -19 -9 -45 -19 -57 -23 -19 -5
-43 -22 -125 -85 -67 -52 -128 -179 -128 -267 l0 -43 -530 0 c-372 0 -536 -3
-554 -11 -13 -7 -30 -24 -36 -39 -9 -21 -11 -273 -8 -963 l3 -935 23 -25 c23
-24 23 -25 5 -31 -39 -13 -84 -79 -241 -358 l-162 -286 0 -67 c0 -36 5 -75 11
-87 27 -50 -57 -48 1922 -48 l1844 0 34 23 c37 25 47 49 48 122 0 47 -10 69
-172 355 -142 249 -180 309 -210 329 l-36 24 19 25 c20 24 20 46 20 978 l0
953 -26 20 c-26 21 -36 21 -490 21 l-464 0 0 43 c-1 48 -19 105 -46 143 -28
40 -32 46 -50 87 -9 21 -22 36 -29 33 -6 -2 -24 9 -39 25 -34 35 -66 55 -66
39 0 -6 -18 -1 -40 10 -42 22 -223 71 -250 69 -8 -1 -42 -5 -75 -9z m-15 -286
c41 -8 137 -19 214 -24 158 -11 205 -21 241 -53 25 -21 26 -27 29 -142 2 -66
7 -136 11 -155 l8 -35 -23 20 c-12 11 -33 41 -46 67 -32 63 -51 72 -140 65
-81 -6 -114 -19 -114 -46 0 -17 7 -18 88 -13 70 4 95 1 121 -12 18 -10 31 -19
28 -22 -2 -2 -35 0 -73 6 -115 16 -188 13 -217 -10 -34 -27 -53 -25 -85 10
-22 25 -41 33 -105 45 -43 8 -100 15 -125 15 -44 1 -46 1 -27 16 26 20 106 13
171 -15 33 -15 51 -18 58 -11 17 17 -5 42 -60 69 -97 47 -167 36 -204 -33 -7
-14 -21 -26 -31 -26 -10 0 -23 -8 -28 -17 -20 -35 -12 42 9 90 11 25 25 72 31
104 15 78 33 111 67 119 15 3 32 7 37 9 14 4 75 -4 165 -21z m-380 -329 c0 -9
-6 -12 -17 -8 -17 6 -17 5 0 -14 15 -17 16 -26 8 -42 -6 -11 -11 -32 -10 -48
1 -27 1 -27 9 5 11 46 17 49 25 12 10 -44 -3 -122 -18 -113 -7 4 -7 1 1 -10 8
-9 12 -24 10 -34 -3 -15 -7 -14 -22 10 -55 83 -62 226 -12 259 13 9 26 1 26
-17z m325 -15 c25 -8 22 -9 -20 -5 -114 12 -145 9 -168 -14 -20 -20 -21 -23
-7 -49 17 -30 34 -36 130 -50 51 -7 71 -6 93 5 15 7 27 11 27 8 0 -20 -36 -87
-51 -95 -40 -22 -195 -2 -216 27 -8 10 -13 48 -13 93 0 47 5 81 13 89 14 15
159 9 212 -9z m-415 -63 c0 -70 20 -134 60 -194 30 -45 33 -55 37 -148 4 -109
18 -194 40 -238 19 -38 10 -57 -26 -57 -41 0 -81 -17 -112 -46 -14 -14 -68
-113 -119 -220 -85 -176 -92 -196 -78 -210 14 -14 13 -24 -13 -105 -26 -80
-29 -103 -29 -224 l0 -135 -345 0 -345 0 0 815 0 815 465 0 465 0 0 -53z m155
-115 c9 -38 84 -66 182 -67 99 0 124 15 158 95 41 97 78 92 89 -11 9 -75 32
-101 107 -123 60 -18 161 -21 189 -6 26 14 40 41 61 120 l18 65 -6 -55 c-3
-30 -9 -73 -15 -95 -12 -50 -55 -125 -71 -125 -7 0 -20 -13 -31 -28 -10 -15
-29 -33 -43 -39 -22 -11 -29 -9 -57 18 -42 42 -86 59 -146 59 -32 0 -49 4 -45
10 3 6 21 10 40 10 32 0 46 14 44 43 0 7 -5 1 -10 -12 -7 -18 -14 -22 -32 -17
-14 3 -33 -1 -46 -10 -21 -15 -24 -15 -45 5 -12 12 -33 21 -45 21 -19 0 -23 4
-19 25 3 13 1 22 -3 19 -5 -3 -9 -16 -9 -30 0 -22 8 -28 36 -25 6 1 18 -7 27
-17 16 -18 15 -18 -44 -4 -58 15 -63 14 -117 -8 -31 -13 -59 -27 -62 -32 -5
-7 -39 21 -81 69 -34 38 -46 119 -39 253 l4 65 3 -75 c2 -41 5 -85 8 -98z
m320 158 c3 -6 -1 -7 -9 -4 -18 7 -21 14 -7 14 6 0 13 -4 16 -10z m1475 -332
c0 -189 -3 -556 -7 -815 l-6 -473 -574 0 -573 0 0 65 c0 98 18 246 48 387 l27
127 109 -59 c111 -61 130 -68 141 -50 4 6 26 2 58 -10 75 -29 100 -26 147 16
53 48 82 114 120 274 18 74 36 151 41 171 7 27 16 39 35 43 14 4 45 25 68 47
28 25 63 45 97 55 63 18 84 36 75 60 -5 14 -15 16 -63 11 l-57 -6 55 33 c35
21 55 40 57 54 5 35 -24 38 -84 9 -30 -15 -54 -24 -54 -21 0 3 18 27 41 54 45
53 50 93 13 98 -16 2 -35 -12 -69 -53 -26 -30 -49 -54 -51 -52 -2 1 3 25 11
52 20 64 19 104 -1 112 -27 10 -45 -9 -64 -67 -21 -67 -51 -130 -62 -130 -4 0
-16 17 -25 37 -22 45 -66 74 -85 55 -10 -10 -10 -19 1 -45 8 -17 17 -66 21
-107 4 -41 12 -88 19 -103 10 -26 5 -40 -70 -178 -45 -82 -86 -149 -91 -149
-6 0 -91 42 -189 92 -160 83 -176 94 -167 111 5 11 24 61 42 111 18 50 40 105
49 123 9 18 17 39 17 48 0 9 22 40 50 69 58 61 87 121 96 197 5 46 3 58 -16
82 -12 15 -28 27 -36 27 -12 0 -12 4 -4 20 10 20 21 20 460 20 l450 0 0 -342z
m-1645 292 c0 -39 -1 -41 -25 -35 -14 4 -25 7 -25 8 -1 1 -6 9 -13 18 -10 14
-10 20 3 33 9 9 26 16 38 16 19 0 22 -6 22 -40z m55 25 c0 -8 -7 -15 -15 -15
-8 0 -15 7 -15 15 0 8 7 15 15 15 8 0 15 -7 15 -15z m66 -3 c6 -4 16 -17 23
-29 9 -19 8 -24 -8 -33 -11 -5 -27 -10 -36 -10 -13 0 -14 4 -4 21 6 12 9 30 6
40 -5 20 1 24 19 11z m429 -15 l50 -12 -1 -56 c-1 -33 -9 -73 -20 -95 -18 -38
-21 -39 -77 -42 -32 -2 -82 4 -112 12 -45 14 -55 21 -64 47 -6 18 -11 43 -11
56 l0 24 28 -19 c39 -28 188 -39 220 -17 12 9 22 24 22 34 0 10 -10 27 -22 39
-36 33 -244 56 -225 24 3 -4 -1 -16 -9 -27 -14 -18 -14 -18 -14 2 0 44 27 56
109 49 42 -3 99 -12 126 -19z m-375 -2 c0 -8 -2 -15 -4 -15 -2 0 -6 7 -10 15
-3 8 -1 15 4 15 6 0 10 -7 10 -15z m225 -54 c1 -38 0 -38 -27 -29 -38 13 -43
26 -22 49 29 32 49 24 49 -20z m55 23 c0 -9 -5 -14 -12 -12 -18 6 -21 28 -4
28 9 0 16 -7 16 -16z m91 -13 c23 -19 24 -19 5 -40 -11 -12 -28 -21 -39 -21
-15 0 -18 5 -13 23 3 12 6 30 6 40 0 22 12 22 41 -2z m209 4 c28 -34 -16 -178
-71 -231 l-29 -28 1 30 c1 52 24 157 36 161 6 2 14 -8 16 -24 2 -15 3 -10 2
13 -2 31 2 44 17 53 11 7 17 15 14 18 -3 3 -12 0 -21 -7 -16 -14 -18 -10 -9
14 8 20 28 20 44 1z m490 -167 c0 -13 -9 -52 -20 -87 -30 -96 -14 -100 63 -18
34 37 65 67 70 67 18 0 3 -30 -48 -93 -76 -94 -68 -102 42 -44 29 15 57 27 63
27 26 0 4 -23 -60 -61 -39 -23 -69 -47 -67 -53 4 -11 8 -11 95 0 72 9 68 -11
-5 -27 -42 -10 -69 -24 -105 -56 -26 -23 -66 -48 -88 -54 -23 -7 -39 -17 -37
-24 5 -13 -43 -230 -68 -307 -25 -75 -43 -108 -78 -145 -35 -37 -58 -40 -116
-17 -40 16 -40 16 -24 40 10 16 22 23 33 19 15 -5 16 0 7 44 -10 47 -9 53 36
143 25 51 70 136 99 189 l53 96 -18 55 c-9 30 -17 78 -17 107 0 29 -7 66 -16
82 -8 17 -13 33 -10 36 9 10 37 -19 58 -61 11 -23 29 -52 39 -65 11 -13 19
-39 19 -58 0 -20 4 -32 10 -28 15 9 12 58 -5 81 -13 20 -11 28 20 90 19 38 35
74 35 81 0 22 19 63 30 63 5 0 10 -10 10 -22z m-1189 -203 c58 -66 221 -87
289 -37 29 22 60 29 60 15 0 -36 -93 -113 -136 -113 -27 0 -51 26 -32 33 7 3
0 6 -17 6 -16 1 -40 4 -53 7 -16 5 -22 3 -20 -7 2 -9 -7 -15 -23 -17 -34 -4
-86 40 -110 92 -29 65 -6 76 42 21z m134 15 c28 -5 74 -9 103 -9 38 -1 52 -5
50 -13 -9 -27 -53 -39 -129 -35 -79 4 -140 29 -153 64 -7 17 1 16 129 -7z
m1475 -850 l0 -370 -1452 2 -1453 3 1448 2 1447 3 0 365 c0 201 2 365 5 365 3
0 5 -166 5 -370z m-1340 280 c0 -5 -5 -10 -11 -10 -5 0 -7 5 -4 10 3 6 8 10
11 10 2 0 4 -4 4 -10z m67 -5 c-9 -10 -15 -10 -26 -1 -12 9 -13 7 -7 -9 5 -15
4 -17 -5 -8 -16 16 -6 28 24 29 21 2 23 -1 14 -11z m-764 -236 c20 -7 37 -16
37 -21 0 -4 -7 -5 -16 -1 -13 5 -14 0 -7 -33 10 -49 7 -162 -8 -234 -18 -96
-13 -90 -85 -90 l-64 0 -2 63 c-5 135 3 211 29 289 l27 76 26 -17 c14 -10 42
-24 63 -32z m132 -109 c4 -49 4 -130 0 -180 l-7 -90 -55 0 c-47 0 -54 2 -49
18 15 50 28 155 28 225 0 90 11 117 49 117 27 0 27 -1 34 -90z m-353 -396 c3
-3 4 -14 1 -24 -5 -18 -18 -19 -225 -22 -121 -2 -222 0 -224 4 -3 4 0 17 6 28
10 19 20 20 224 20 117 0 215 -3 218 -6z m2036 -24 l3 -25 -218 0 c-184 0
-219 2 -225 15 -18 40 -17 40 215 38 l222 -3 3 -25z m-2498 -30 c0 -6 85 -10
234 -10 146 0 237 4 241 10 9 14 1565 14 1565 0 0 -6 87 -10 240 -10 173 0
240 3 240 11 0 17 195 6 240 -14 19 -8 44 -25 56 -38 40 -46 344 -595 344
-622 0 -16 -8 -30 -19 -37 -14 -7 -611 -9 -1895 -8 l-1876 3 0 -27 c0 -37 18
-45 23 -11 3 21 4 19 6 -12 1 -39 1 -39 -18 -20 -14 14 -21 37 -23 80 l-3 60
170 298 c178 313 190 329 269 347 48 12 206 12 206 0z"/>
<path d="M578 993 c-16 -38 -52 -116 -79 -174 -27 -58 -49 -109 -49 -112 0 -4
691 -7 1535 -7 844 0 1535 3 1535 8 -1 4 -36 84 -79 177 l-78 170 -1377 3
-1377 2 -31 -67z m177 47 c-3 -5 -32 -10 -64 -10 -31 0 -62 -5 -69 -12 -9 -9
-12 -9 -12 3 0 9 3 19 7 22 11 11 145 8 138 -3z m185 1 c0 -5 -38 -11 -85 -13
-81 -3 -94 0 -78 15 10 11 163 8 163 -2z m190 -1 c0 -6 -31 -10 -74 -10 -41 0
-82 -3 -90 -6 -12 -5 -15 -2 -10 10 5 13 22 16 90 16 49 0 84 -4 84 -10z m190
1 c0 -5 -40 -11 -89 -13 -68 -2 -87 0 -84 10 6 14 173 17 173 3z m180 0 c0 -5
-38 -11 -85 -13 -81 -3 -94 0 -78 15 10 11 163 8 163 -2z m190 -1 c0 -6 -31
-10 -74 -10 -41 0 -82 -3 -90 -6 -12 -5 -15 -2 -10 10 5 13 22 16 90 16 49 0
84 -4 84 -10z m190 1 c0 -5 -38 -11 -85 -13 -63 -2 -85 0 -85 10 0 9 24 12 85
12 47 0 85 -4 85 -9z m190 0 c0 -5 -38 -11 -85 -13 -63 -2 -85 0 -85 10 0 9
24 12 85 12 47 0 85 -4 85 -9z m190 0 c0 -5 -38 -11 -85 -13 -63 -2 -85 0 -85
10 0 9 24 12 85 12 47 0 85 -4 85 -9z m190 -1 c0 -6 -35 -10 -85 -10 -50 0
-85 4 -85 10 0 6 35 10 85 10 50 0 85 -4 85 -10z m187 -5 c4 -13 -158 -7 -172
6 -6 6 22 9 79 7 49 -2 91 -7 93 -13z m186 3 c3 -10 -16 -12 -84 -10 -49 2
-89 8 -89 13 0 14 167 11 173 -3z m191 -4 c5 -12 2 -15 -10 -10 -8 3 -49 6
-90 6 -43 0 -74 4 -74 10 0 6 35 10 84 10 68 0 85 -3 90 -16z m183 1 c2 -6
-28 -9 -82 -7 -47 2 -85 8 -85 13 0 13 162 7 167 -6z m161 -10 c3 -16 1 -18
-9 -7 -7 7 -38 12 -70 12 -32 0 -61 5 -64 10 -5 7 17 10 67 8 64 -3 73 -5 76
-23z m-2635 -32 c-102 -3 -114 -6 -124 -24 -6 -11 -13 -18 -16 -16 -2 3 0 15
7 26 10 20 18 21 128 19 l117 -2 -112 -3z m222 0 c-60 -3 -83 -8 -92 -20 -11
-14 -13 -15 -13 -2 0 26 10 29 99 27 l86 -2 -80 -3z m190 0 c-60 -3 -83 -8
-92 -20 -11 -14 -13 -15 -13 -2 0 26 10 29 99 27 l86 -2 -80 -3z m265 0 c0 -5
-35 -6 -77 -5 -65 3 -79 1 -90 -14 -11 -14 -13 -15 -13 -3 0 9 3 19 7 22 9 10
173 9 173 0z m196 0 c-4 -5 -46 -8 -92 -8 -46 0 -84 3 -84 8 0 4 41 7 92 7 50
0 88 -3 84 -7z m184 -1 c0 -5 -36 -8 -80 -8 -63 1 -80 -2 -84 -14 -2 -8 -4 -5
-5 8 -1 21 2 22 84 22 47 0 85 -4 85 -8z m118 1 c-72 -3 -87 -7 -91 -21 -3
-12 -5 -11 -6 6 -1 21 1 22 92 20 l92 -2 -87 -3z m272 0 c0 -5 -28 -7 -62 -5
-113 5 -125 9 -30 10 50 1 92 -1 92 -5z m190 0 c0 -5 -38 -8 -85 -8 -47 0 -85
3 -85 8 0 4 38 7 85 7 47 0 85 -3 85 -7z m170 1 c-58 -8 -150 -8 -150 -1 0 4
39 6 88 6 48 -1 76 -3 62 -5z m210 2 c0 -2 3 -13 6 -23 6 -17 6 -17 -7 -1 -11
13 -33 18 -94 21 l-80 3 88 2 c48 1 87 0 87 -2z m198 -21 c4 -19 3 -19 -10 -3
-10 13 -32 18 -93 21 l-80 3 90 0 c82 -1 90 -3 93 -21z m190 0 c4 -19 3 -19
-10 -3 -10 13 -32 18 -93 21 l-80 3 90 0 c82 -1 90 -3 93 -21z m252 4 c7 -11
9 -23 7 -26 -3 -2 -10 5 -16 16 -10 18 -22 21 -124 24 l-112 3 117 2 c110 2
118 1 128 -19z m-2503 -45 c-3 -3 -71 -5 -151 -5 l-146 2 -10 -26 c-5 -14 -14
-25 -20 -25 -6 0 -4 12 5 30 l16 30 156 0 c86 0 154 -3 150 -6z m116 -1 c-88
-4 -91 -4 -97 -30 -4 -14 -9 -23 -12 -20 -3 2 -2 16 2 31 6 26 6 26 103 24
l96 -2 -92 -3z m284 1 c-4 -4 -44 -6 -91 -5 -83 2 -84 2 -90 -25 -9 -34 -16
-28 -9 9 l5 27 96 0 c52 0 92 -3 89 -6z m203 -3 c0 -4 -39 -6 -87 -4 -64 3
-88 1 -94 -9 -7 -10 -9 -9 -9 5 0 15 11 17 95 17 52 0 95 -4 95 -9z m200 1 c0
-5 -40 -9 -90 -9 -49 -1 -90 3 -90 8 0 5 41 9 90 9 50 0 90 -4 90 -8z m175 2
c-72 -8 -155 -8 -155 -1 0 4 42 6 93 5 50 0 79 -3 62 -4z m183 -1 c-26 -2 -71
-2 -100 0 -29 2 -8 3 47 3 55 0 79 -1 53 -3z m242 0 c0 -5 -30 -7 -67 -5 -119
5 -131 9 -30 10 53 1 97 -1 97 -5z m200 0 c0 -9 -179 -8 -188 1 -3 3 38 6 91
6 54 0 97 -3 97 -7z m200 -10 c0 -14 -2 -15 -9 -5 -6 10 -31 13 -90 11 -45 -1
-84 1 -88 5 -3 3 37 6 90 6 86 0 97 -2 97 -17z m204 -9 c4 -15 5 -28 3 -31 -3
-2 -7 7 -11 21 -6 24 -9 25 -99 29 l-92 3 96 2 c97 2 97 2 103 -24z m200 0 c4
-15 5 -29 2 -31 -3 -3 -8 7 -12 21 -6 27 -7 27 -90 25 -47 -1 -87 1 -91 5 -3
3 37 6 89 6 95 0 96 0 102 -26z m331 -4 c9 -18 11 -30 5 -30 -6 0 -15 11 -20
25 l-10 26 -146 -2 c-80 0 -148 2 -151 5 -4 3 64 6 150 6 l156 0 16 -30z
m-1918 -22 c-3 -8 -6 -5 -6 6 -1 11 2 17 5 13 3 -3 4 -12 1 -19z m-537 -28 c0
-6 -76 -10 -209 -10 l-209 0 -6 -25 c-4 -14 -11 -25 -16 -25 -13 0 -13 6 5 40
l16 30 209 0 c133 0 210 -4 210 -10z m210 0 c0 -6 -37 -10 -90 -10 -87 0 -91
-1 -100 -25 -14 -37 -20 -30 -7 10 l10 35 94 0 c55 0 93 -4 93 -10z m200 0 c0
-6 -36 -10 -88 -10 -87 0 -88 0 -99 -27 l-12 -28 6 30 c3 17 8 33 10 38 6 11
183 9 183 -3z m205 0 c-3 -5 -44 -10 -90 -10 -82 0 -84 -1 -94 -27 -10 -26
-11 -26 -6 -3 2 14 5 31 5 38 0 9 26 12 96 12 61 0 93 -4 89 -10z m205 0 c0
-6 -37 -10 -90 -10 -82 0 -90 -2 -90 -19 0 -11 -4 -22 -8 -25 -4 -2 -6 11 -4
30 l4 34 94 0 c56 0 94 -4 94 -10z m200 0 c0 -6 -35 -10 -84 -10 -72 0 -85 -3
-89 -17 -3 -11 -5 -7 -6 10 l-1 27 90 0 c53 0 90 -4 90 -10z m190 0 c0 -6 -37
-10 -90 -10 -53 0 -90 4 -90 10 0 6 37 10 90 10 53 0 90 -4 90 -10z m210 0 c0
-6 -38 -10 -95 -10 -57 0 -95 4 -95 10 0 6 38 10 95 10 57 0 95 -4 95 -10z
m200 7 c0 -1 4 -17 9 -35 6 -20 6 -32 0 -32 -5 0 -9 11 -9 25 0 25 -1 25 -90
25 -53 0 -90 4 -90 10 0 6 37 10 90 10 50 0 90 -1 90 -3z m207 -22 c2 -11 0
-14 -3 -7 -4 8 -33 12 -95 12 -55 0 -89 4 -89 10 0 7 33 10 92 8 84 -3 93 -5
95 -23z m210 -10 c13 -40 7 -47 -7 -10 -9 24 -13 25 -100 25 -53 0 -90 4 -90
10 0 6 38 10 93 10 l94 0 10 -35z m181 10 c17 -37 14 -55 -4 -22 -14 26 -18
27 -89 27 -43 0 -75 4 -75 10 0 6 33 10 78 10 75 0 79 -1 90 -25z m267 -6 c9
-17 14 -33 11 -36 -3 -3 -11 6 -17 21 -12 26 -12 26 -131 26 -72 0 -118 4
-118 10 0 6 47 10 120 10 l119 0 16 -31z m-2750 -59 c-3 -5 -46 -10 -96 -10
-49 0 -89 -2 -89 -4 0 -2 -3 -11 -6 -20 -5 -13 3 -16 42 -18 l49 -1 -60 -6
c-33 -3 -61 -3 -63 1 -2 4 4 20 13 37 l16 31 100 0 c64 0 98 -4 94 -10z m210
0 c-3 -5 -46 -10 -95 -10 l-88 0 -11 -32 c-6 -17 -14 -29 -17 -25 -3 3 -1 22
6 41 l12 36 99 0 c64 0 98 -4 94 -10z m210 0 c-3 -5 -46 -10 -95 -10 -87 0
-90 -1 -96 -25 -3 -14 -10 -25 -15 -25 -8 0 3 39 17 61 3 5 48 9 100 9 61 0
93 -4 89 -10z m205 0 c0 -6 -36 -10 -89 -10 -88 0 -89 0 -100 -27 -10 -26 -11
-26 -6 -3 2 14 5 31 5 38 0 9 26 12 95 12 57 0 95 -4 95 -10z m1189 -17 c-1
-17 -3 -21 -6 -10 -4 16 -40 17 -579 17 l-574 0 -6 -25 c-9 -36 -17 -23 -9 14
l7 31 584 0 584 0 -1 -27z m193 -12 c5 -18 7 -36 4 -39 -3 -3 -9 9 -12 26 l-6
32 -79 0 c-43 0 -81 5 -84 10 -5 7 22 10 81 8 l88 -3 8 -34z m195 4 c6 -19 8
-35 3 -35 -4 0 -11 11 -14 25 -6 24 -9 25 -91 25 -50 0 -85 4 -85 10 0 6 36
10 88 10 l89 0 10 -35z m192 3 c13 -38 6 -52 -8 -14 -10 25 -13 26 -90 26 -44
0 -83 5 -86 10 -4 6 26 10 83 10 l90 0 11 -32z m197 -4 c8 -20 13 -39 9 -42
-3 -3 -11 9 -17 26 l-12 32 -83 0 c-49 0 -83 4 -83 10 0 6 35 10 86 10 l85 0
15 -36z m199 5 c9 -17 15 -33 13 -37 -2 -4 -30 -4 -63 -1 -60 6 -60 6 -12 7
40 2 48 5 45 20 -3 14 -17 17 -91 20 -115 4 -113 22 3 22 l89 0 16 -31z"/>
<path d="M1435 648 c-17 -78 -36 -201 -31 -205 7 -8 11 5 31 117 l18 96 536 3
c295 1 538 5 540 7 2 2 -242 4 -542 4 l-547 0 -5 -22z"/>
</g>
</svg>
