<svg xmlns="http://www.w3.org/2000/svg" viewBox="0 0 102.27 16.7">
  <path fill="#ffffff"
    d="m39.86,3.74c0,.32-.09.58-.26.8s-.35.32-.54.32c-.11,0-.21-.04-.28-.11-.29.24-.54.37-.75.37-.32,0-.47-.16-.47-.47,0-.11.05-.29.16-.53s.2-.36.27-.36c.06,0,.08.05.06.15l-.04.32c0,.07.06.11.19.11.19,0,.36-.09.52-.26.16-.17.23-.26.22-.26.07,0,.12.04.14.13s.05.13.1.13c.17,0,.31-.09.41-.26s.16-.26.17-.26c.07,0,.11.06.11.17Zm14.74,2.45c0-.06.02-.13.05-.21.02-.05.02-.07-.02-.07s-.08.09-.14.28c-.22.33-.33.66-.33,1,0,.3.12.45.37.45.49,0,.73-.27.73-.82,0-.15-.22-.36-.66-.63Zm.25.93c-.13.05-.23.08-.29.08-.13,0-.19-.06-.19-.19,0-.05.02-.13.06-.24.04-.12.07-.17.1-.17.01,0,.1.06.27.18.17.12.25.2.25.22,0,.03-.07.08-.2.13Zm-43.81-1.64c0-.06.02-.13.05-.21.02-.05.02-.07-.02-.07s-.08.09-.14.28c-.22.33-.33.66-.33,1,0,.3.12.45.37.45.49,0,.73-.27.73-.82,0-.15-.22-.36-.66-.63Zm.25.93c-.13.05-.23.08-.29.08-.13,0-.19-.06-.19-.19,0-.05.02-.13.06-.24.04-.12.07-.17.1-.17.01,0,.1.06.27.18.17.12.25.2.25.22,0,.03-.07.08-.2.13Zm69.04-2.72c.13-.27.19-.55.19-.84,0-.5-.15-.76-.46-.76-.22,0-.46.14-.73.43s-.4.58-.4.89c0,.23.17.41.51.54.14.04.25.07.32.11-.2.29-.51.58-.94.86-.2.13-.57.34-1.11.65-.31.18-.44.29-.4.32.04.07.18.05.43-.05.47-.18.85-.36,1.16-.54.54-.32.94-.69,1.21-1.11.13.07.26.16.4.27.04.04.07.06.11.08.02,0,.04-.05.05-.16.05-.18.09-.3.11-.35,0-.07-.15-.19-.46-.35Zm-.32-.13c-.47-.22-.7-.37-.7-.46,0-.25.15-.38.46-.38.22,0,.32.12.32.35,0,.14-.03.31-.08.49Zm-14.12,5c-.75.33-1.21.57-1.38.71-.13.09-.25.22-.35.37s-.15.24-.12.27c-.01,0,.38-.19,1.17-.57,1.38-.58,2.41-.99,3.09-1.24.19-.22.34-.43.46-.62-1,.33-1.96.69-2.86,1.08Zm33.21,5.45c-.78.34-1.25.58-1.42.73-.13.1-.25.22-.36.38s-.15.25-.13.27c-.01,0,.39-.19,1.2-.58,1.42-.59,2.48-1.02,3.19-1.27.19-.23.35-.44.47-.64-1.03.34-2.02.71-2.95,1.11Zm-10.35.5c-.78.34-1.25.58-1.42.73-.13.1-.25.22-.36.38s-.15.25-.13.27c-.01,0,.39-.19,1.2-.58,1.42-.59,2.48-1.02,3.19-1.27.19-.23.35-.44.47-.64-1.03.34-2.02.71-2.95,1.11Zm-28.07,0c-.78.34-1.25.58-1.42.73-.13.1-.25.22-.36.38s-.15.25-.13.27c-.01,0,.39-.19,1.2-.58,1.42-.59,2.48-1.02,3.19-1.27.19-.23.35-.44.47-.64-1.03.34-2.02.71-2.95,1.11Zm-10.94,0c-.78.34-1.25.58-1.42.73-.13.1-.25.22-.36.38s-.15.25-.13.27c-.01,0,.39-.19,1.2-.58,1.42-.59,2.48-1.02,3.19-1.27.19-.23.35-.44.47-.64-1.03.34-2.02.71-2.95,1.11Zm-12.07-11.5c-.78.34-1.25.58-1.42.73-.13.1-.25.22-.36.38s-.15.25-.13.27c-.01,0,.39-.19,1.2-.58,1.42-.59,2.48-1.02,3.19-1.27.19-.23.35-.44.47-.64-1.03.34-2.02.71-2.95,1.11Zm-18.72.62s-.07.09-.17.26-.24.26-.41.26c-.04,0-.08-.04-.1-.13s-.07-.13-.14-.13c.01,0-.06.09-.22.26-.16.17-.33.26-.52.26-.13,0-.19-.04-.19-.11l.04-.32c.01-.1,0-.15-.06-.15-.07,0-.16.12-.27.36s-.16.41-.16.53c0,.32.16.47.47.47.22,0,.47-.12.75-.37.07.07.17.11.28.11.19,0,.37-.11.54-.32s.26-.48.26-.8c0-.11-.04-.17-.11-.17Zm-2.08-.56c-.78.34-1.25.58-1.42.73-.13.1-.25.22-.36.38s-.15.25-.13.27c-.01,0,.39-.19,1.2-.58,1.42-.59,2.48-1.02,3.19-1.27.19-.23.35-.44.47-.64-1.03.34-2.02.71-2.95,1.11Zm14.55,1.38s-.07.09-.17.26-.24.26-.41.26c-.04,0-.08-.04-.1-.13s-.07-.13-.14-.13c.01,0-.06.09-.22.26-.16.17-.33.26-.52.26-.13,0-.19-.04-.19-.11l.04-.32c.01-.1,0-.15-.06-.15-.07,0-.16.12-.27.36s-.16.41-.16.53c0,.32.16.47.47.47.22,0,.47-.12.75-.37.07.07.17.11.28.11.19,0,.37-.11.54-.32s.26-.48.26-.8c0-.11-.04-.17-.11-.17Zm-1.95-.96c-1.31.57-2.11.99-2.4,1.23-.23.16-.43.38-.62.65s-.26.42-.22.46c-.02,0,.66-.33,2.03-.99,2.4-1.01,4.2-1.72,5.39-2.16.33-.39.6-.75.8-1.08-1.74.57-3.41,1.2-4.99,1.88Zm-22.16-.52c-1.31.57-2.11.99-2.4,1.23-.23.16-.43.38-.62.65s-.26.42-.22.46c-.02,0,.66-.33,2.03-.99,2.4-1.01,4.2-1.72,5.39-2.16.33-.39.6-.75.8-1.08-1.74.57-3.41,1.2-4.99,1.88Zm27.93,3.94c-.78.34-1.25.58-1.42.73-.13.1-.25.22-.36.38s-.15.25-.13.27c-.01,0,.39-.19,1.2-.58,1.42-.59,2.48-1.02,3.19-1.27.19-.23.35-.44.47-.64-1.03.34-2.02.71-2.95,1.11Zm-10.74,8.11c-.78.34-1.25.58-1.42.73-.13.1-.25.22-.36.38s-.15.25-.13.27c-.01,0,.39-.19,1.2-.58,1.42-.59,2.48-1.02,3.19-1.27.19-.23.35-.44.47-.64-1.03.34-2.02.71-2.95,1.11Zm-11.33-.27c-.78.34-1.25.58-1.42.73-.13.1-.25.22-.36.38s-.15.25-.13.27c-.01,0,.39-.19,1.2-.58,1.42-.59,2.48-1.02,3.19-1.27.19-.23.35-.44.47-.64-1.03.34-2.02.71-2.95,1.11Zm-9.62-.24c-.78.34-1.25.58-1.42.73-.13.1-.25.22-.36.38s-.15.25-.13.27c-.01,0,.39-.19,1.2-.58,1.42-.59,2.48-1.02,3.19-1.27.19-.23.35-.44.47-.64-1.03.34-2.02.71-2.95,1.11ZM70.52,2.21c-.66.29-1.06.49-1.2.62-.11.08-.22.19-.31.32s-.13.21-.11.23c-.01,0,.33-.16,1.02-.49,1.2-.5,2.11-.86,2.7-1.08.16-.2.3-.38.4-.54-.88.29-1.71.6-2.5.94Zm18.8,6.51c-.06.2-.16.3-.3.3-.06,0-.11-.03-.15-.09-.07-.09-.11-.26-.11-.52,0-.36.09-.9.28-1.61.04-.13.06-.22.06-.26,0-.11-.05-.09-.15.06-.04.06-.08.14-.11.24-.19.76-.29,1.27-.32,1.53-.03.44.04.79.22,1.03.06.09.14.12.26.11.13-.01.24-.09.32-.22.04-.07.08-.2.11-.39.03-.2.02-.3-.02-.3s-.07.04-.09.11Zm-29.99-4.27c-.06.2-.16.3-.3.3-.06,0-.11-.03-.15-.09-.07-.09-.11-.26-.11-.52,0-.36.09-.9.28-1.61.04-.13.06-.22.06-.26,0-.11-.05-.09-.15.06-.04.06-.08.14-.11.24-.19.76-.29,1.27-.32,1.53-.03.44.04.79.22,1.03.06.09.14.12.26.11.13-.01.24-.09.32-.22.04-.07.08-.2.11-.39.03-.2.02-.3-.02-.3s-.07.04-.09.11Zm-11.18.19c-.06.2-.16.3-.3.3-.06,0-.11-.03-.15-.09-.07-.09-.11-.26-.11-.52,0-.36.09-.9.28-1.61.04-.13.06-.22.06-.26,0-.11-.05-.09-.15.06-.04.06-.08.14-.11.24-.19.76-.29,1.27-.32,1.53-.03.44.04.79.22,1.03.06.09.14.12.26.11.13-.01.24-.09.32-.22.04-.07.08-.2.11-.39.03-.2.02-.3-.02-.3s-.07.04-.09.11Zm-7.08,9.9c-.06.2-.16.3-.3.3-.06,0-.11-.03-.15-.09-.07-.09-.11-.26-.11-.52,0-.36.09-.9.28-1.61.04-.13.06-.22.06-.26,0-.11-.05-.09-.15.06-.04.06-.08.14-.11.24-.19.76-.29,1.27-.32,1.53-.03.44.04.79.22,1.03.06.09.14.12.26.11.13-.01.24-.09.32-.22.04-.07.08-.2.11-.39.03-.2.02-.3-.02-.3s-.07.04-.09.11ZM.8,8.72c-.06.2-.16.3-.3.3-.06,0-.11-.03-.15-.09-.07-.09-.11-.26-.11-.52,0-.36.09-.9.28-1.61.04-.13.06-.22.06-.26,0-.11-.05-.09-.15.06-.04.06-.08.14-.11.24-.19.76-.29,1.27-.32,1.53-.03.44.04.79.22,1.03.06.09.14.12.26.11.13-.01.24-.09.32-.22.04-.07.08-.2.11-.39.03-.2.02-.3-.02-.3s-.07.04-.09.11Zm32.01,2.5c-.06.2-.16.3-.3.3-.06,0-.11-.03-.15-.09-.07-.09-.11-.26-.11-.52,0-.36.09-.9.28-1.61.04-.13.06-.22.06-.26,0-.11-.05-.09-.15.06-.04.06-.08.14-.11.24-.19.76-.29,1.27-.32,1.53-.03.44.04.79.22,1.03.06.09.14.12.26.11.13-.01.24-.09.32-.22.04-.07.08-.2.11-.39.03-.2.02-.3-.02-.3s-.07.04-.09.11Zm25.58.47c-.06.2-.16.3-.3.3-.06,0-.11-.03-.15-.09-.07-.09-.11-.26-.11-.52,0-.36.09-.9.28-1.61.04-.13.06-.22.06-.26,0-.11-.05-.09-.15.06-.04.06-.08.14-.11.24-.19.76-.29,1.27-.32,1.53-.03.44.04.79.22,1.03.06.09.14.12.26.11.13-.01.24-.09.32-.22.04-.07.08-.2.11-.39.03-.2.02-.3-.02-.3s-.07.04-.09.11Zm11.29,3.21c-.06.2-.16.3-.3.3-.06,0-.11-.03-.15-.09-.07-.09-.11-.26-.11-.52,0-.36.09-.9.28-1.61.04-.13.06-.22.06-.26,0-.11-.05-.09-.15.06-.04.06-.08.14-.11.24-.19.76-.29,1.27-.32,1.53-.03.44.04.79.22,1.03.06.09.14.12.26.11.13-.01.24-.09.32-.22.04-.07.08-.2.11-.39.03-.2.02-.3-.02-.3s-.07.04-.09.11Zm14.3,0c-.06.2-.16.3-.3.3-.06,0-.11-.03-.15-.09-.07-.09-.11-.26-.11-.52,0-.36.09-.9.28-1.61.04-.13.06-.22.06-.26,0-.11-.05-.09-.15.06-.04.06-.08.14-.11.24-.19.76-.29,1.27-.32,1.53-.03.44.04.79.22,1.03.06.09.14.12.26.11.13-.01.24-.09.32-.22.04-.07.08-.2.11-.39.03-.2.02-.3-.02-.3s-.07.04-.09.11Zm13.02-4.74c-.06.2-.16.3-.3.3-.06,0-.11-.03-.15-.09-.07-.09-.11-.26-.11-.52,0-.36.09-.9.28-1.61.04-.13.06-.22.06-.26,0-.11-.05-.09-.15.06-.04.06-.08.14-.11.24-.19.76-.29,1.27-.32,1.53-.03.44.04.79.22,1.03.06.09.14.12.26.11.13-.01.24-.09.32-.22.04-.07.08-.2.11-.39.03-.2.02-.3-.02-.3s-.07.04-.09.11ZM14.02,8.15c-.06.2-.16.3-.3.3-.06,0-.11-.03-.15-.09-.07-.09-.11-.26-.11-.52,0-.36.09-.9.28-1.61.04-.13.06-.22.06-.26,0-.11-.05-.09-.15.06-.04.06-.08.14-.11.24-.19.76-.29,1.27-.32,1.53-.03.44.04.79.22,1.03.06.09.14.12.26.11.13-.01.24-.09.32-.22.04-.07.08-.2.11-.39.03-.2.02-.3-.02-.3s-.07.04-.09.11ZM97,3.87c-.06.2-.16.3-.3.3-.06,0-.11-.03-.15-.09-.07-.09-.11-.26-.11-.52,0-.36.09-.9.28-1.61.04-.13.06-.22.06-.26,0-.11-.05-.09-.15.06-.04.06-.08.14-.11.24-.19.76-.29,1.27-.32,1.53-.03.44.04.79.22,1.03.06.09.14.12.26.11.13-.01.24-.09.32-.22.04-.07.08-.2.11-.39.03-.2.02-.3-.02-.3s-.07.04-.09.11Zm-30.65,1.99s-.08,0-.15.04c-.39.23-.85.34-1.4.34-.14,0-.29-.04-.45-.12-.16-.08-.24-.16-.24-.25,0-.19.21-.42.62-.71.46-.34.69-.68.69-1.01,0-.16-.22-.24-.65-.24-.3,0-.5.03-.6.09-.14.09-.27.25-.37.5-.03.06-.03.09,0,.11.03.03.06.02.11-.02.11-.1.32-.15.62-.15.16,0,.32.02.5.06-.46.37-.71.58-.75.62-.29.32-.43.65-.43,1.01,0,.39.3.58.9.58s1.13-.24,1.55-.71c.07-.09.09-.14.04-.15Zm14.87-.48c-.29-.24-.51-.36-.64-.36-.03,0-.07.06-.11.17s-.05.18-.03.2.05.04.08.07c-.16.29-.25.54-.25.74,0,.03,0,.06.02.08.08.11.2.17.36.2-.25.29-.66.62-1.23.98-.22.15-.68.43-1.37.83-.13.07-.25.13-.34.18-.04.01-.07.03-.07.05s.03.03.08.03c.09-.02.16-.04.21-.07,1.48-.63,2.46-1.27,2.93-1.91.22.11.38.16.49.16.26,0,.39-.14.39-.43,0-.33-.17-.64-.52-.93Zm.33.92s-.02.07-.08.07c-.03,0-.11-.02-.23-.07s-.18-.08-.18-.11c0-.24.04-.36.13-.36.03,0,.1.05.2.16s.15.19.16.25v.07Zm-.65-.16s-.11-.02-.22-.07-.17-.09-.17-.12c0-.04.03-.1.09-.16s.12-.1.17-.1c.04,0,.09.04.15.11s.08.13.08.17c0,.12-.03.18-.1.18ZM28.23,1.8c-.29-.24-.51-.36-.64-.36-.03,0-.07.06-.11.17s-.05.18-.03.2.05.04.08.07c-.16.29-.25.54-.25.74,0,.03,0,.06.02.08.08.11.2.17.36.2-.25.29-.66.62-1.23.98-.22.15-.68.43-1.37.83-.13.07-.25.13-.34.18-.04.01-.07.03-.07.05s.03.03.08.03c.09-.02.16-.04.21-.07,1.48-.63,2.46-1.27,2.93-1.91.22.11.38.16.49.16.26,0,.39-.14.39-.43,0-.33-.17-.64-.52-.93Zm.33.92s-.02.07-.08.07c-.03,0-.11-.02-.23-.07s-.18-.08-.18-.11c0-.24.04-.36.13-.36.03,0,.1.05.2.16s.15.19.16.25v.07Zm-.65-.16s-.11-.02-.22-.07-.17-.09-.17-.12c0-.04.03-.1.09-.16s.12-.1.17-.1c.04,0,.09.04.15.11s.08.13.08.17c0,.12-.03.18-.1.18Zm-24.32.15c-.29-.24-.51-.36-.64-.36-.03,0-.07.06-.11.17s-.05.18-.03.2.05.04.08.07c-.16.29-.25.54-.25.74,0,.03,0,.06.02.08.08.11.2.17.36.2-.25.29-.66.62-1.23.98-.22.15-.68.43-1.37.83-.13.07-.25.13-.34.18C.02,5.81,0,5.82,0,5.85s.03.03.08.03c.09-.02.16-.04.21-.07,1.48-.63,2.46-1.27,2.93-1.91.22.11.38.16.49.16.26,0,.39-.14.39-.43,0-.33-.17-.64-.52-.93Zm.33.92s-.02.07-.08.07c-.03,0-.11-.02-.23-.07s-.18-.08-.18-.11c0-.24.04-.36.13-.36.03,0,.1.05.2.16s.15.19.16.25v.07Zm-.65-.16s-.11-.02-.22-.07-.17-.09-.17-.12c0-.04.03-.1.09-.16s.12-.1.17-.1c.04,0,.09.04.15.11s.08.13.08.17c0,.12-.03.18-.1.18Zm49.85-1.61c-.23-.03-.4.19-.51.67-.07.47-.12.8-.15,1v.02c-.13-.43-.31-.78-.54-1.07-.21-.25-.41-.38-.6-.4-.11-.01-.19.15-.24.49,0,.05.08.15.27.3.19.15.3.23.35.24.03,0,.06-.04.1-.14.11.08.22.27.35.58.11.26.16.43.16.52-.11-.01-.23.06-.34.23-.09.13-.15.26-.16.38,0,.06,0,.1,0,.1.03,0,.07-.04.13-.14.06-.09.13-.14.21-.13.13.02.22.05.27.11-.23,0-.44.09-.63.25-.22.18-.34.4-.37.66-.03.21,0,.75.1,1.61.08.97.13,1.72.15,2.23,0,.06.02.1.04.12.04,0,.07-.07.09-.22.03-.2-.05-1.47-.22-3.8,0-.1.15-.19.45-.27s.58-.11.85-.1c.03,0,.07-.04.12-.14s.08-.18.08-.24c0-.05-.09-.17-.25-.35s-.28-.28-.34-.28c.1-.56.19-1.05.27-1.47.03-.23.14-.33.33-.3.13.02.23.09.3.23.05.1.1.1.13.02.07-.21.08-.34.05-.38-.15-.2-.31-.31-.46-.33Zm46.54,5.12c-.32,0-.52.33-.6.99-.3-.57-.62-.86-.97-.86-.19,0-.28.13-.28.39,0,.3.25.44.75.41.19.2.31.41.37.62.04.1.06.17.06.22.03.07.06.11.11.13.1,0,.17-.09.19-.27s.05-.33.06-.44c.07-.42.14-.62.22-.62s.14.02.22.05.11.05.13.05c.09,0,.13-.09.13-.28,0-.26-.13-.39-.39-.39Zm-12.75,1.89c-.32,0-.52.33-.6.99-.3-.57-.62-.86-.97-.86-.19,0-.28.13-.28.39,0,.3.25.44.75.41.19.2.31.41.37.62.04.1.06.17.06.22.03.07.06.11.11.13.1,0,.17-.09.19-.27s.05-.33.06-.44c.07-.42.14-.62.22-.62s.14.02.22.05.11.05.13.05c.09,0,.13-.09.13-.28,0-.26-.13-.39-.39-.39Zm-.59-7.09c-.32,0-.52.33-.6.99-.3-.57-.62-.86-.97-.86-.19,0-.28.13-.28.39,0,.3.25.44.75.41.19.2.31.41.37.62.04.1.06.17.06.22.03.07.06.11.11.13.1,0,.17-.09.19-.27s.05-.33.06-.44c.07-.42.14-.62.22-.62s.14.02.22.05.11.05.13.05c.09,0,.13-.09.13-.28,0-.26-.13-.39-.39-.39Zm-29.76,6.97c-.32,0-.52.33-.6.99-.3-.57-.62-.86-.97-.86-.19,0-.28.13-.28.39,0,.3.25.44.75.41.19.2.31.41.37.62.04.1.06.17.06.22.03.07.06.11.11.13.1,0,.17-.09.19-.27s.05-.33.06-.44c.07-.42.14-.62.22-.62s.14.02.22.05.11.05.13.05c.09,0,.13-.09.13-.28,0-.26-.13-.39-.39-.39ZM14.41,2.28c-.32,0-.52.33-.6.99-.3-.57-.62-.86-.97-.86-.19,0-.28.13-.28.39,0,.3.25.44.75.41.19.2.31.41.37.62.04.1.06.17.06.22.03.07.06.11.11.13.1,0,.17-.09.19-.27s.05-.33.06-.44c.07-.42.14-.62.22-.62s.14.02.22.05.11.05.13.05c.09,0,.13-.09.13-.28,0-.26-.13-.39-.39-.39Zm42.14.63c-.32,0-.52.33-.6.99-.3-.57-.62-.86-.97-.86-.19,0-.28.13-.28.39,0,.3.25.44.75.41.19.2.31.41.37.62.04.1.06.17.06.22.03.07.06.11.11.13.1,0,.17-.09.19-.27s.05-.33.06-.44c.07-.42.14-.62.22-.62s.14.02.22.05.11.05.13.05c.09,0,.13-.09.13-.28,0-.26-.13-.39-.39-.39ZM20.91,13.23c-.32,0-.52.33-.6.99-.3-.57-.62-.86-.97-.86-.19,0-.28.13-.28.39,0,.3.25.44.75.41.19.2.31.41.37.62.04.1.06.17.06.22.03.07.06.11.11.13.1,0,.17-.09.19-.27s.05-.33.06-.44c.07-.42.14-.62.22-.62s.14.02.22.05.11.05.13.05c.09,0,.13-.09.13-.28,0-.26-.13-.39-.39-.39Zm13.54-8.86c-.32,0-.52.33-.6.99-.3-.57-.62-.86-.97-.86-.19,0-.28.13-.28.39,0,.3.25.44.75.41.19.2.31.41.37.62.04.1.06.17.06.22.03.07.06.11.11.13.1,0,.17-.09.19-.27s.05-.33.06-.44c.07-.42.14-.62.22-.62s.14.02.22.05.11.05.13.05c.09,0,.13-.09.13-.28,0-.26-.13-.39-.39-.39Zm46.32,7.81h0c-.14-.19-.27-.37-.39-.56-.12-.19-.26-.28-.41-.28h0c-.23,0-.5.16-.8.47h0c-.35.37-.67.88-.94,1.52h0c-.48,1.13-.88,1.7-1.21,1.7h0c-.29,0-.54-.17-.75-.52-.22-.35-.32-.79-.32-1.32h0c0-.26.03-.56.08-.9h0c.04-.21.03-.31-.02-.31h0c-.07-.01-.15.16-.23.51h0c-.08.38-.12.77-.12,1.17h0c0,.52.14.99.43,1.43h0c.29.48.6.72.94.72h0c.33,0,.61-.23.86-.7h0c.21-.46.4-.93.59-1.41h0c.4-.86.83-1.29,1.3-1.29h0c.16,0,.42.23.77.7.36.47.79.7,1.3.7h0c.25,0,.37-.24.37-.72h0c0-.17-.04-.26-.12-.26h0c-.56.03-1-.19-1.33-.66Zm-1.16-2.91l-1.02-.6-.5.9,1.04.61.42-.75,1.02.6.5-.9-1.04-.61-.42.75Zm4.92,3.1h0c-.24-.37-.43-1.04-.57-2.03h0c-.12-.88-.33-2.21-.64-3.99h0c-.61-3.48-.93-5.22-.98-5.22h0s-.1.19-.21.58c-.11.39-.17.61-.16.66h0c.31,1.85.57,3.37.77,4.57h0c.43,2.43.67,4.08.73,4.96h0c.02.27-.14.49-.47.68h0c-.29.16-.59.24-.92.24h0c-.25,0-.38.24-.38.72h0c0,.19.05.28.14.28h0c.71,0,1.26-.28,1.67-.85h0c.12-.17.2-.38.25-.64h0c.24.99.72,1.49,1.44,1.49h0c.25,0,.38-.24.38-.72h0c0-.19-.05-.28-.14-.28h0c-.4,0-.7-.15-.91-.46Zm7.59-.12h0c-.21-.13-.3-.32-.29-.57h0c.01-.19.01-.3,0-.31h0c-.07-.03-.18.09-.33.35h0c-.08.19-.17.38-.26.56h0c-.14.19-.36.27-.66.26h0c-.42,0-.63-.16-.63-.49h0c0-.05.03-.17.08-.35h0c.04-.12.04-.19,0-.2h0c-.07-.01-.17.08-.31.28h0c-.19.29-.35.49-.47.62h0c-.33.3-.7.45-1.13.45h0c-.43,0-.68-.23-.73-.68h0c0-.11.01-.24.04-.39h0c.01-.11,0-.16-.04-.16h0s-.12.03-.23.12h0c-.38.41-.61.65-.7.72h0c-.29.25-.63.37-1.04.37h0c-.26,0-.39.24-.39.71h0c0,.19.05.29.14.29h0c.71,0,1.3-.35,1.77-1.04h0c0,.69.33,1.04.98,1.04h0c.64,0,1.18-.37,1.62-1.1h0c-.03.21.03.41.16.58.14.17.31.26.52.26h0c.52,0,.91-.32,1.17-.95h0c.15.29.27.48.35.58h0c.13.13.34.2.61.2h0c.25,0,.37-.24.37-.72h0c0-.17-.04-.26-.12-.26h0c-.21-.01-.37-.07-.49-.17Zm2.92-.3h0c-.24-.37-.43-1.04-.57-2.03h0c-.12-.88-.33-2.21-.64-3.99h0c-.61-3.48-.93-5.22-.98-5.22h0s-.1.19-.21.58c-.11.39-.17.61-.16.66h0c.31,1.85.57,3.37.77,4.57h0c.43,2.43.67,4.08.73,4.96h0c.02.27-.14.49-.47.68h0c-.29.16-.59.24-.92.24h0c-.25,0-.38.24-.38.72h0c0,.19.05.28.14.28h0c.71,0,1.26-.28,1.67-.85h0c.12-.17.2-.38.25-.64h0c.24.99.72,1.49,1.44,1.49h0c.25,0,.38-.24.38-.72h0c0-.19-.05-.28-.14-.28h0c-.4,0-.7-.15-.91-.46Zm7.14-1.6h0c-.06-.18-.1-.27-.13-.27h0s-.09.14-.2.41c-.11.27-.16.44-.16.49h0s.03.11.1.2c.07.09.1.17.1.26h0c0,.15-.15.22-.45.22h0c-.3,0-.54-.1-.72-.29h0c-.19-.21-.24-.43-.16-.65h0c.05-.17.07-.26.06-.27h0c-.07-.05-.16,0-.27.17h0c-.07.11-.13.26-.2.47h0c-.27.69-.7,1.04-1.29,1.04h0c-.6,0-.9-.22-.9-.67h0c0-.14.05-.31.14-.5h0c.03-.07.02-.11-.02-.12h0s-.08.01-.16.08h0c-.07.06-.16.15-.25.27h0c-.59.82-1.16,1.23-1.74,1.23h0c-.26,0-.39.24-.39.72h0c0,.17.05.26.14.26h0c.47,0,.89-.19,1.29-.57h0c.27-.33.47-.59.6-.78h0c-.01.3.08.56.29.79.21.23.46.34.76.34h0c.27,0,.54-.1.8-.29h0c.23-.17.39-.34.47-.53h0c.17-.31.26-.5.29-.56h0c.08.61.42.91,1.02.91h0c.7,0,1.05-.58,1.05-1.73h0c0-.21-.03-.42-.08-.63Zm-25.38-1.29h0c-.45-2.69-.78-4.65-1.02-5.88h0c.19.19.3.31.35.36h0c.15.17.26.23.31.2h0c.05-.04-.12-.49-.52-1.35h0c-.36-.77-.56-1.16-.6-1.16h0s-.08.12-.17.36h0c-.11.29-.2.5-.25.65h0c-.02.05.03.13.15.24h0c.24,1.63.43,2.85.58,3.67h0c.51,2.95.83,5.05.96,6.3h0c0,.06.02.35.05.86h0c.01.24.04.36.09.36h0c.08,0,.18-.29.29-.87h0c.07-.31.1-.62.1-.92h0c0-.48-.11-1.42-.32-2.82Zm-2.79,3.07h0c-.01-.25-.05-.47-.11-.65h0c-.28-.8-.79-1.52-1.55-2.15h0c-.21-.17-.46-.36-.77-.57h0c.03-.42,0-.81-.11-1.19h0c-.13-.43-.39-.76-.78-.99h0c-.17-.1-.57-.25-1.19-.46h0c.04-.21.06-.4.06-.57h0c0-.63-.36-1.13-1.07-1.51h0c-.68-.35-1.09-.61-1.25-.78h0c.1.03.18.05.24.06h0c.15.03.23.04.24.02h0s-.23-.22-.71-.61h0c-.37-.3-.56-.44-.58-.42h0s-.07.4-.07,1.06h0s.04.04.12.09h0c.38.55.73.93,1.05,1.17h0c.07.54.15.92.24,1.16h0c.21.51.7.94,1.47,1.29h0c.04.43.17.82.4,1.19h0c.11.18.52.53,1.23,1.05h0c.86.63,1.39,1.03,1.6,1.23h0c.77.7,1.21,1.25,1.31,1.65h0c.06.23.11.34.15.34h0c.07,0,.09-.14.08-.41Zm-6.01-7.02h0c-.04-.07-.09-.16-.15-.28h0c.24.11.42.2.54.26h0c.58.3.89.63.94.98h0c-.68-.27-1.12-.59-1.33-.96Zm1.7,2.15h0c.32.1.51.16.57.19h0c.39.15.68.36.87.63h0c.06.09.13.26.2.51h0c-.9-.61-1.44-1.05-1.64-1.33Zm2.51-3.74h0c-.33.17-.52.25-.57.25h0c-.44,0-.66-.13-.66-.39h0c0-.16.11-.24.33-.24h0c.21,0,.33.1.36.29h0c.17,0,.26-.13.26-.37h0c0-.23-.13-.35-.38-.35h0c-.57,0-.86.28-.86.83h0c0,.27.1.45.3.56h0c-.27.13-.4.33-.4.58h0c0,.09.04.1.12.02h0c.28-.26.77-.5,1.48-.73h0s.05-.08.1-.23c.06-.15.08-.23.06-.25h0s-.06,0-.15.04Zm2.33,3.04h0c-.19-1.1-.39-2.21-.58-3.32h0c.32.43.52.63.6.58h0c.05-.03-.1-.44-.45-1.21-.35-.78-.56-1.16-.61-1.16h0s-.11.14-.23.43c-.12.29-.18.45-.18.49h0s.05.12.14.21h0c.04.57.28,2.12.73,4.66h0c.42,2.41.64,3.93.65,4.58h0c0,.34-.09.66-.3.95h0c-.35.49-1.05,1.08-2.12,1.8h0c-.37.25-.85.53-1.43.84h0c-.43.23-.65.36-.64.38h0s.33-.01.94-.14h0c1.06-.22,1.82-.49,2.29-.81h0c1.19-.84,1.77-2.22,1.74-4.12h0c-.01-.79-.19-2.17-.54-4.14Zm-10.7,4.29h0c-.01-.08-.15-1.24-.41-3.49h0c-.19-1.62-.43-3.01-.71-4.17h0c-.09-.38-.22-.77-.38-1.16h0c-.13-.33-.22-.5-.25-.5h0s-.08.17-.18.5c-.1.33-.14.52-.13.55h0c.53,1.08,1.02,3.89,1.47,8.42h0c.21,2.13.98,3.19,2.32,3.19h0c.25,0,.38-.24.38-.72h0c0-.19-.05-.28-.14-.28h0c-1.06,0-1.72-.78-1.97-2.35Zm5.42-.02h0c-1.56-.55-2.57-.82-3.02-.82h0c-.49,0-.89.15-1.19.45h0c-.31.32-.47.75-.47,1.29h0c0,.19.07.47.21.84h0c.15.41.24.75.28,1.01h0s.02.25.06.67h0c.01.19.05.29.11.29h0c.07,0,.11-.12.14-.37h.18c.78-.04,1.84-.36,3.19-.96h0c1.32-.61,2.09-.92,2.31-.92h0s.08,0,.13.02c.05.01.08.02.09.02h0s.13-.16.28-.48c.15-.32.21-.48.18-.48h0c-.57,0-1.4-.19-2.49-.56Zm-3.45,2.37h0c-.17,0-.32-.01-.45-.04h0c-.03-.21-.05-.38-.08-.53h0c-.04-.22-.11-.48-.21-.78h0c-.09-.25-.14-.38-.14-.41h0c0-.07.1-.16.31-.27h0c.26-.13.55-.2.88-.2h0c.37,0,.96.14,1.78.41h0c.56.19,1.12.38,1.7.59h0c-1.8.82-3.06,1.23-3.78,1.23Zm-3.34-3.42h0c-.18-.16-.65-.41-1.4-.76-.75-.35-1.39-.76-1.92-1.23h0c.26,0,.4-.03.41-.08h0s-.18-.2-.61-.46-.68-.38-.76-.37h0s-.03.18-.02.52h0c0,.33,0,.51,0,.54h0c.05.07.1.11.13.12h0c.49.65,1.14,1.18,1.95,1.62h0c.47.23.94.47,1.41.7h0c.61.33.91.61.91.86h0c0,.11-.91.68-2.72,1.73h0c-1.5.87-2.47,1.31-2.93,1.31h0c-.48,0-.72-.28-.72-.83h0c0-.37.09-.79.28-1.26.19-.47.24-.7.15-.7h0c-.06,0-.17.18-.33.55h0c-.33.76-.49,1.48-.49,2.18h0c0,.77.31,1.16.93,1.16h0c.47,0,1.53-.49,3.18-1.46h0c1.45-.86,2.29-1.41,2.51-1.65h0c.3-.33.45-.81.45-1.42h0c0-.45-.14-.8-.42-1.06Zm-9.03,2.47h0c-.18-.18-.27-.37-.27-.57h0s.02-.07.07-.18h0c.03-.07,0-.11-.06-.11h0c-.05,0-.25.08-.6.23h0c-.52.23-.94.4-1.28.53h0c-1.77.68-3.3,1.02-4.6,1.02h0c-1.22,0-2.13-.21-2.72-.62h0c-.45-.32-.68-.73-.68-1.22h0c0-.19.04-.38.13-.57.09-.2.13-.3.13-.31h0s-.01-.05-.04-.06h0c-.09-.05-.23.11-.4.49h0c-.18.4-.27.79-.27,1.18h0c0,.57.24,1.03.71,1.39h0c.61.47,1.55.71,2.84.71h0c1.3,0,2.66-.26,4.06-.79h0c.54-.21,1.09-.44,1.67-.71h0c.45-.21.68-.31.68-.31h0c.05,0,.08.04.08.11h0c0,.23.08.46.23.67h0c.2.29.48.43.84.43h0c.25,0,.38-.24.38-.72h0c0-.19-.05-.28-.14-.28h0c-.31,0-.56-.1-.77-.3Zm-6.4-3.75l1.04.61.5-.9-1.04-.61-.5.9Zm1.19,1.25l-1.01-.59-.5.9,1.04.61.42-.76,1.01.59.5-.9-1.04-.61-.42.76Zm7.04,1.28h0c-.11-.22-.19-.33-.24-.33h0s-.07.14-.12.41c-.06.27-.08.43-.08.48h0s.05.09.14.26.14.3.14.36h0c0,.07-.09.14-.27.21h0c-.19.09-.4.14-.63.14h0c-.26,0-.39.24-.39.72h0c0,.17.05.26.14.26h0c1.01,0,1.52-.51,1.52-1.53h0c0-.37-.07-.7-.21-.99Zm-.78,4.67l.85-.85-.74-.71-.69.69-.74-.7-.85.85.74.71.69-.69.74.7Zm-9.42-6.96h0c-.45-2.69-.78-4.65-1.02-5.88h0c.19.19.3.31.35.36h0c.15.17.26.23.31.2h0c.05-.04-.12-.49-.52-1.35h0c-.36-.77-.56-1.16-.6-1.16h0s-.08.12-.17.36h0c-.11.29-.2.5-.25.65h0c-.02.05.03.13.15.24h0c.24,1.63.43,2.85.58,3.67h0c.51,2.95.83,5.05.96,6.3h0c0,.06.02.35.05.86h0c.01.24.04.36.09.36h0c.08,0,.18-.29.29-.87h0c.07-.31.1-.62.1-.92h0c0-.48-.11-1.42-.32-2.82Zm-8.93,1.7c-.11-.28-.22-.47-.33-.58h0c-.37-.43-.69-.64-.98-.64h0c-.33,0-.62.2-.88.6h0c-.23.34-.35.68-.35,1.02h0c0,.53.36.8,1.07.8h0c.39,0,.79-.09,1.18-.27h0c.07.21.11.39.11.55h0c0,.17-.51.56-1.52,1.19h0c-1.05.66-2.16,1.24-3.31,1.76h0c-.8.39-1.89.83-3.26,1.33h0c-.78.29-1.17.46-1.17.52h0s.03.02.08.02h0c.12,0,.53-.06,1.23-.19h0c1.7-.27,2.56-.42,2.57-.43h0c.64-.19,1.6-.66,2.88-1.43h0c1.22-.73,1.95-1.22,2.19-1.5h0c.43-.51.65-1.2.65-2.06h0c0-.18-.05-.41-.16-.69Zm-1.43.21h0c-.31,0-.47-.07-.47-.2h0c0-.05.04-.11.12-.17.08-.06.15-.09.2-.09h0c.25,0,.49.14.72.43h0c-.15.03-.34.04-.57.04Zm3.07-.29h0c-.15-.19-.22-.36-.19-.49h0c.04-.21.04-.32,0-.35h0s-.23.14-.68.41h0c-.49.29-.84.44-1.06.45v1h0c.6-.27,1.05-.55,1.35-.84h0c.05.78.43,1.17,1.13,1.17h0c.25,0,.37-.24.37-.72h0c0-.17-.05-.26-.15-.26h0c-.33,0-.58-.12-.77-.37Zm-1.41,3.96l1.04.61.5-.9-1.04-.61-.5.9Zm4.3-4.16h0c-.24-.26-.3-.52-.19-.78h0c.03-.07.03-.11,0-.12h0c-.06-.03-.15.03-.26.19h0c-.22.33-.4.6-.53.81h0c-.29.28-.67.43-1.14.46h0c-.25,0-.38.24-.38.72h0c0,.19.05.28.14.28h0c.69,0,1.28-.44,1.79-1.32h0c.06.33.15.56.26.69h0c.18.21.42.32.71.33h0c.25,0,.38-.24.38-.72h0c0-.19-.05-.28-.14-.28h0c-.25,0-.47-.09-.64-.26Zm-1.48-3l1.04.61.5-.9-1.04-.61-.5.9Zm3.58-.92h0c-.2-1.21-.41-2.42-.63-3.64h0c.19.19.31.32.35.37h0c.15.17.25.24.31.21h0v-.04h0c0-.09-.17-.52-.52-1.31h0c-.34-.78-.54-1.17-.59-1.17h0s-.11.16-.25.49h0c-.09.25-.15.42-.18.51h0c-.01.05.03.14.14.25h0c.22,1.52.4,2.63.53,3.33h0c.35,2,.55,3.43.62,4.27h0c.01.26-.12.48-.41.67h0c-.26.17-.54.25-.84.25h0c-.26,0-.39.24-.39.72h0c0,.17.05.26.14.26h0c.66,0,1.17-.28,1.54-.84h0c.33-.52.48-1.13.47-1.84h0c0-.59-.1-1.42-.29-2.49Zm-14.21,4.32h0c-.14-.19-.27-.37-.39-.56-.12-.19-.26-.28-.41-.28h0c-.23,0-.5.16-.8.47h0c-.35.37-.67.88-.94,1.52h0c-.48,1.13-.88,1.7-1.21,1.7h0c-.29,0-.54-.17-.75-.52-.22-.35-.32-.79-.32-1.32h0c0-.26.03-.56.08-.9h0c.04-.21.03-.31-.02-.31h0c-.07-.01-.15.16-.23.51h0c-.08.38-.12.77-.12,1.17h0c0,.52.14.99.43,1.43h0c.29.48.6.72.94.72h0c.33,0,.61-.23.86-.7h0c.21-.46.4-.93.59-1.41h0c.4-.86.83-1.29,1.3-1.29h0c.16,0,.42.23.77.7.36.47.79.7,1.3.7h0c.25,0,.37-.24.37-.72h0c0-.17-.04-.26-.12-.26h0c-.56.03-1-.19-1.33-.66Zm-1.16-2.91l-1.02-.6-.5.9,1.04.61.42-.75,1.02.6.5-.9-1.04-.61-.42.75Zm3.7,1.52h0c-.15-.29-.27-.43-.34-.43h0s-.07.13-.12.4c-.05.27-.08.43-.08.49h0s.09.1.28.37c.19.27.28.48.28.63h0c0,.07-.14.18-.43.33h0c-.31.16-.59.24-.82.24h0c-.25,0-.38.24-.38.72h0c0,.19.05.28.14.28h0c.63,0,1.11-.22,1.43-.66h0c.22-.31.33-.73.33-1.26h0c0-.39-.1-.77-.29-1.13Zm-2.02,4.44l-1.02-.6-.5.9,1.04.61.42-.75,1.02.6.5-.9-1.04-.61-.42.75Zm-4.21-4.7h0c-.45-2.69-.78-4.65-1.02-5.88h0c.19.19.3.31.35.36h0c.15.17.26.23.31.2h0c.05-.04-.12-.49-.52-1.35h0c-.36-.77-.56-1.16-.6-1.16h0s-.08.12-.17.36h0c-.11.29-.2.5-.25.65h0c-.02.05.03.13.15.24h0c.24,1.63.43,2.85.58,3.67h0c.51,2.95.83,5.05.96,6.3h0c0,.06.02.35.05.86h0c.01.24.04.36.09.36h0c.08,0,.18-.29.29-.87h0c.07-.31.1-.62.1-.92h0c0-.48-.11-1.42-.32-2.82Zm-3.75,2.58h0c-.11-.12-.16-.24-.14-.35h0c0-.19,0-.28-.03-.28h0c-.09,0-.26.22-.51.65h0c-.19.39-.47.58-.86.58h0c-.16,0-.3-.06-.43-.18-.13-.12-.19-.25-.19-.39h0c0-.09.02-.18.07-.27.05-.09.07-.13.07-.13h0s0-.05-.02-.06h0c-.07-.04-.19.07-.37.32-.18.25-.32.43-.4.54h0c-.23.34-.62.51-1.16.51h0c-.44,0-.82-.2-1.16-.6-.33-.4-.69-.6-1.06-.6h0c-.83,0-1.86.69-3.08,2.06h0c-.78.89-1.22,1.39-1.33,1.5h0c-.48.45-.9.68-1.27.68h0c-.29,0-.53-.11-.72-.34-.2-.23-.29-.5-.29-.81h0c0-.56.27-1.25.82-2.07h0c.15-.22.21-.34.2-.37h0c-.07-.07-.19,0-.37.21h0c-.64.76-.96,1.55-.96,2.36h0c0,.45.1.84.29,1.17h0c.25.43.64.65,1.16.65h0c.43,0,.85-.2,1.29-.59h0c.26-.22.65-.66,1.17-1.31h0c.69-.84,1.28-1.42,1.76-1.72h0c.4-.26.78-.39,1.15-.39h0c.21,0,.38.05.53.14h0c.08.06.32.28.72.66h0c.26.27.57.41.92.41h0c.43,0,.8-.15,1.11-.45h0c.11-.1.29-.34.55-.72h0c.05.53.31.8.76.8h0c.55,0,.96-.34,1.25-1.02h0c.13.42.43.64.88.65h0c.24,0,.36-.24.36-.72h0c0-.17-.05-.26-.14-.26h0c-.23,0-.41-.08-.53-.25Zm-3.75-4.09l1.04.61.5-.9-1.04-.61-.5.9Zm1.19,1.25l-1.01-.59-.5.9,1.04.61.42-.76,1.01.59.5-.9-1.04-.61-.42.76Zm4.12-1.96h0c-.29-1.57-.57-3.14-.84-4.7h0c.18.18.3.3.35.35h0c.17.16.27.23.31.2h0s.02-.03.02-.04h0c0-.08-.18-.52-.53-1.31h0c-.34-.78-.54-1.17-.6-1.17h0s-.09.12-.18.37h0c-.11.29-.19.51-.25.66h0c-.03.05.03.13.17.22h0c.23,1.64.42,2.86.55,3.68h0c.61,3.47.92,5.57.92,6.3h0c0,.08-.11.18-.34.3-.23.12-.43.18-.59.18h0c-.26,0-.39.24-.39.72h0c0,.17.05.26.14.26h0c.78,0,1.28-.42,1.5-1.25h0c.13-.53.2-.99.2-1.37h0c0-.57-.14-1.71-.43-3.41Zm-17.58,3.8h0c-.14-.19-.27-.37-.39-.56-.12-.19-.26-.28-.41-.28h0c-.23,0-.5.16-.8.47h0c-.35.37-.67.88-.94,1.52h0c-.48,1.13-.88,1.7-1.21,1.7h0c-.29,0-.54-.17-.75-.52-.22-.35-.32-.79-.32-1.32H.29c0-.26.03-.56.08-.9H.37c.04-.21.03-.31-.02-.31H.35c-.07-.01-.15.16-.23.51H.12C.04,11.16,0,11.55,0,11.94H0C0,12.46.14,12.94.43,13.37H.43c.29.48.6.72.94.72h0c.33,0,.61-.23.86-.7h0c.21-.46.4-.93.59-1.41h0c.4-.86.83-1.29,1.3-1.29h0c.16,0,.42.23.77.7.36.47.79.7,1.3.7h0c.25,0,.37-.24.37-.72h0c0-.17-.04-.26-.12-.26h0c-.56.03-1-.19-1.33-.66Zm-1.16-2.91l-1.02-.6-.5.9,1.04.61.42-.75,1.02.6.5-.9-1.04-.61-.42.75Zm4.8,3.24h0c.35-.49.52-1.05.52-1.69h0c0-.19-.07-.43-.2-.74h0c-.15-.35-.31-.53-.47-.53h0c-.27,0-.58.24-.95.72h0c-.4.52-.6,1.03-.6,1.54h0c0,.31.06.6.17.86h0c-.21.11-.48.16-.8.16h0c-.25,0-.38.24-.38.72h0c0,.19.05.28.14.28h0c.56,0,1.11-.19,1.65-.56h0c.35.21.87.33,1.57.34h0c.25,0,.38-.24.38-.72h0c0-.19-.05-.28-.14-.28h0c-.33,0-.63-.03-.89-.1Zm-.67-.3h0c-.4-.27-.6-.52-.6-.77h0c0-.13.1-.3.3-.52.2-.22.37-.33.49-.33h0c.13,0,.26.14.39.41h0c.13.25.19.46.19.63h0c0,.09-.26.28-.78.58Zm-.73-4.56l1.04.61.5-.9-1.04-.61-.5.9Zm3.51,2.91h0c-.15-.29-.27-.43-.34-.43h0s-.07.13-.12.4c-.05.27-.08.43-.08.49h0s.09.1.28.37c.19.27.28.48.28.63h0c0,.07-.14.18-.43.33h0c-.31.16-.59.24-.82.24h0c-.25,0-.38.24-.38.72h0c0,.19.05.28.14.28h0c.63,0,1.11-.22,1.43-.66h0c.22-.31.33-.73.33-1.26h0c0-.39-.1-.77-.29-1.13Zm-.47,3.9l-1.02-.6-.5.9,1.04.61.42-.75,1.02.6.5-.9-1.04-.61-.42.75ZM101.31,3.61s-.08.09-.16.28c-.04.08-.03.14.04.18.09.08.08.13-.04.16-.17.05-.31.02-.4-.1-.03-.03-.02-.11.02-.26.01-.07,0-.1-.02-.1-.09,0-.17.1-.24.3-.12.32-.35.48-.68.48-.12,0-.23-.04-.34-.12-.23-.15-.5-.13-.83.04-.46.23-.89.56-1.29,1.01-.48.5-1.05.93-1.69,1.29-.35.17-.62.3-.83.36-.11.04-.18.08-.22.12,0,.03.02.04.06.04.15,0,.44-.09.87-.26.52-.21.98-.47,1.37-.76.23-.2.46-.4.7-.6.42-.38.71-.61.89-.7.39-.17.72-.18.99-.02.08.05.18.08.3.08.3,0,.52-.12.68-.36.04-.07.09-.08.14-.04.09.09.21.14.34.14.34,0,.5-.23.5-.68,0-.31-.05-.46-.16-.46Zm-9.78.5s-.08.09-.16.28c-.04.08-.03.14.04.18.09.08.08.13-.04.16-.17.05-.31.02-.4-.1-.03-.03-.02-.11.02-.26.01-.07,0-.1-.02-.1-.09,0-.17.1-.24.3-.12.32-.35.48-.68.48-.12,0-.23-.04-.34-.12-.23-.15-.5-.13-.83.04-.46.23-.89.56-1.29,1.01-.48.5-1.05.93-1.69,1.29-.35.17-.62.3-.83.36-.11.04-.18.08-.22.12,0,.03.02.04.06.04.15,0,.44-.09.87-.26.52-.21.98-.47,1.37-.76.23-.2.46-.4.7-.6.42-.38.71-.61.89-.7.39-.17.72-.18.99-.02.08.05.18.08.3.08.3,0,.52-.12.68-.36.04-.07.09-.08.14-.04.09.09.21.14.34.14.34,0,.5-.23.5-.68,0-.31-.05-.46-.16-.46Z" />
</svg>