<svg xmlns="http://www.w3.org/2000/svg" viewBox="0 0 44.09 30.78">
  <path d="M0.9,30.7l-0.1-1.3c-0.1,0-0.4-0.1-0.5-0.2C0.2,29,0,28.8,0,28.5c0-0.3,0.1-0.6,0.2-0.7
		c0.1-0.2,0.2-0.3,0.4-0.4c0.1-0.1,0.3-0.2,0.4-0.3C1,27,1,26.6,1.1,26.3c0.1-0.4,0.1-0.7,0.1-0.8c0.1-0.7,0.3-1.2,0.5-1.7
		c0.1-0.2,0.2-0.3,0.3-0.4c0.2-0.1,0.3-0.2,0.4-0.2c0.1,0,0.1-0.1,0.2-0.1c0.1-0.1,0.1-0.2,0.1-0.3c0-0.1,0-0.2,0-0.3
		c0-0.1-0.1-0.1-0.1-0.2c0,0-0.3-0.3-0.4-0.8c-0.1-0.4,0-0.8,0-0.9c0-0.2,0.2-0.5,0.5-0.9c0.1-0.1,0.4-0.5,0.9-0.6
		C3.8,19.1,4,19,4.3,19l0-0.4c0-0.2,0.1-0.3,0.3-0.4c0.1,0,0.2-0.1,0.8-0.1c1.4-2.1,1.8-3.1,1.8-3.1c0.3-1,0.1-1.5,0.1-1.6
		c-0.1-0.2-0.1-0.3-0.1-0.4l0.1-0.1l0.1,0c0.3-0.1,0.8,0.1,1.2,0.3c0.1,0.1,0.2,0.1,0.3,0.2l2-1.9l0.1-0.5c0-0.1,0-0.3,0.1-0.4
		c0.1-0.2,0.4-0.2,0.6-0.1h0.5l1.6-1.1c0-0.3,0.1-0.6,0.4-0.9c0.1-0.1,0.3-0.4,0.7-0.6c0.4-0.1,0.7-0.1,0.9,0
		C15.9,7.9,16,7.9,16.1,8c0.1,0.1,0.1,0.1,0.3,0.2c0.2,0.1,0.3,0.1,0.6,0.1c0.7,0,1.1-0.3,1.3-0.4c0.2-0.1,0.3-0.2,0.3-0.3
		c0-0.1-0.1-0.4-0.1-0.5c-0.2-0.3-0.5-0.6-1-0.7c-0.1,0-0.4,0-0.5-0.2c-0.1-0.2,0-0.5,0.1-0.7c0.2-0.3,0.4-0.6,0.7-0.8
		c0.6-0.4,1.2-0.3,1.6-0.3c0.1,0,0.2,0,0.3,0c0.7-2.6,1.3-3.4,1.3-3.5c0.2-0.3,0.5-0.6,0.7-0.9L22,0l0.2,0.2
		c0.3,0.3,0.5,0.6,0.7,0.9c0,0,0.6,0.9,1.3,3.5c0.1,0,0.2,0,0.3,0c0.4,0,1.1-0.1,1.6,0.3c0.4,0.2,0.5,0.5,0.7,0.8
		C27,5.8,27.2,6,27,6.3c-0.1,0.2-0.4,0.2-0.5,0.2c-0.4,0-0.8,0.4-1,0.7c-0.1,0.1-0.2,0.3-0.1,0.5c0,0,0.1,0.1,0.3,0.3
		C25.9,8,26.4,8.3,27,8.3c0.3,0,0.4,0,0.6-0.1c0.1,0,0.2-0.1,0.3-0.2c0.1-0.1,0.2-0.2,0.5-0.2c0.2,0,0.5-0.1,0.9,0
		c0.4,0.1,0.6,0.4,0.7,0.6c0.2,0.3,0.3,0.7,0.4,0.9l1.6,1.1h0.5c0.2-0.1,0.4,0,0.5,0.1c0.1,0.1,0.1,0.3,0.1,0.4l0.1,0.5l2,1.9
		c0.1-0.1,0.2-0.1,0.3-0.2c0.4-0.2,1-0.4,1.2-0.3l0.2,0.1l0,0.1c0,0.1,0,0.2-0.1,0.4c-0.1,0.1-0.2,0.6,0.1,1.6c0,0,0.3,1.1,1.8,3.1
		c0.5,0.1,0.7,0.1,0.8,0.1c0.2,0.1,0.3,0.2,0.3,0.4l0,0.4c0.3,0,0.5,0,0.8,0.1c0.5,0.2,0.8,0.5,0.9,0.6c0.3,0.4,0.4,0.8,0.5,0.9
		c0,0.1,0.1,0.5,0,1c-0.1,0.4-0.4,0.8-0.4,0.8c0,0.1-0.1,0.1-0.1,0.2c0,0.1,0,0.2,0,0.3c0,0.1,0,0.2,0.1,0.3c0,0.1,0.1,0.1,0.2,0.1
		s0.2,0.1,0.4,0.2c0.1,0.1,0.2,0.2,0.3,0.4c0.2,0.4,0.4,0.9,0.5,1.7c0,0.1,0.1,0.4,0.1,0.8c0,0.3,0.1,0.7,0.1,0.9
		c0.1,0.1,0.3,0.2,0.4,0.3c0.1,0.1,0.2,0.2,0.3,0.4c0.1,0.1,0.2,0.4,0.2,0.7c0,0.2-0.2,0.5-0.4,0.6c-0.2,0.1-0.4,0.2-0.5,0.2
		l-0.1,1.3L0.9,30.7L0.9,30.7z" />
</svg>