<svg xmlns="http://www.w3.org/2000/svg" viewBox="0 0 265.8 11.82">
  <path class="cls-1"
    d="m80.71,2.18c.4.33.67.75.81,1.26.14.51.2,1.11.2,1.79,0,1.36-.22,2.36-.67,2.98-.45.62-1.14.93-2.07.93h-2.64V1.69h2.64c.75,0,1.32.16,1.73.49Zm.17,3.12c0-1-.15-1.74-.46-2.2s-.78-.69-1.43-.69h-1.82v5.99h1.82c1.26,0,1.89-1.03,1.89-3.1Zm2.27,3.52c-.26-.28-.39-.68-.39-1.21s.13-.9.39-1.15.68-.41,1.25-.46l1.68-.16v-.46c0-.68-.29-1.02-.88-1.02s-1.28.05-2.11.14l-.03-.61c.76-.16,1.46-.24,2.09-.24s1.05.14,1.32.41c.27.28.41.72.41,1.32v2.76c.02.27.23.42.62.47l-.03.64c-.56,0-.99-.14-1.27-.43-.63.29-1.28.43-1.93.43-.49,0-.87-.14-1.12-.42Zm2.69-.51l.25-.09v-1.78l-1.58.15c-.32.03-.55.12-.7.28s-.21.39-.21.69c0,.66.27.99.81.99.48,0,.96-.08,1.43-.25Zm2.63-4.57h.79v.73c.61-.42,1.27-.71,1.96-.85v.82c-.28.06-.58.15-.9.26-.32.12-.58.23-.78.33l-.27.14v3.95h-.8V3.76Zm10.06,3.47h-3.17l-.53,1.92h-.81l2.03-7.45h1.8l2.03,7.45h-.81l-.53-1.92Zm-2.98-.74h2.8l-1.12-4.08h-.56l-1.12,4.08Zm5.42-5.07h.8v7.73h-.8V1.41Zm2.26,4.39h3.24v.75h-3.24v-.75Zm12.04-4.11v7.45h-.82V2.57h-.15l-2.15,6.3h-.92l-2.15-6.3h-.15v6.57h-.82V1.69h1.49l2.1,6.31,2.1-6.31h1.49Zm1.72,7.14c-.26-.28-.39-.68-.39-1.21s.13-.9.39-1.15.68-.41,1.25-.46l1.68-.16v-.46c0-.68-.29-1.02-.88-1.02s-1.28.05-2.11.14l-.03-.61c.76-.16,1.46-.24,2.09-.24s1.05.14,1.32.41c.27.28.41.72.41,1.32v2.76c.02.27.23.42.62.47l-.03.64c-.56,0-.99-.14-1.27-.43-.63.29-1.28.43-1.93.43-.49,0-.87-.14-1.12-.42Zm2.69-.51l.25-.09v-1.78l-1.58.15c-.32.03-.55.12-.7.28s-.21.39-.21.69c0,.66.27.99.81.99.48,0,.96-.08,1.43-.25Zm2.7-6.91h.8v7.73h-.8V1.41Zm2.41.19h.79v.94h-.79v-.94Zm0,2.15h.79v5.38h-.79V3.76Zm2.33-2.35h.8v4.57l.83-.04,1.53-2.18h.91l-1.74,2.48,1.82,2.91h-.91l-1.59-2.5-.85.03v2.47h-.8V1.41Zm8.44,1.01v2.91h3.05v.73h-3.05v3.08h-.82V1.69h4.43v.73h-3.61Zm5.17,6.54c-.34-.19-.57-.49-.72-.89s-.21-.93-.21-1.59.07-1.23.22-1.64c.15-.41.39-.71.73-.9.34-.19.78-.29,1.34-.29s1.01.1,1.34.29.57.5.72.9c.15.41.22.95.22,1.64s-.07,1.19-.21,1.59-.38.7-.71.89c-.33.19-.79.29-1.36.29s-1.02-.1-1.36-.29Zm2.27-.61c.21-.13.35-.34.43-.63.08-.29.12-.7.12-1.23,0-.56-.04-.99-.13-1.29s-.23-.52-.44-.65c-.21-.13-.5-.19-.89-.19s-.68.07-.89.19c-.21.13-.36.34-.45.65-.09.3-.13.73-.13,1.29,0,.52.04.93.12,1.23.08.29.23.51.44.64.21.13.52.2.91.2s.69-.07.9-.2Zm3.3.65c-.25-.17-.42-.44-.52-.82-.1-.38-.15-.92-.15-1.6v-2.81h.8v2.8c0,.54.03.94.09,1.22.06.27.16.47.31.58.15.11.38.17.7.17.49,0,.98-.13,1.5-.4V3.76h.8v5.38h-.8v-.38c-.29.17-.56.3-.81.37-.25.08-.53.11-.86.11-.46,0-.81-.08-1.05-.25Zm5.07-5.24h.79v.38c.32-.18.62-.3.88-.38.27-.07.55-.11.84-.11.46,0,.81.09,1.06.26s.43.45.53.82.16.9.16,1.57v2.84h-.79v-2.82c0-.51-.03-.9-.09-1.17s-.17-.47-.33-.59c-.16-.12-.39-.18-.68-.18-.24,0-.49.03-.74.09-.25.06-.46.13-.62.21l-.2.1v4.37h-.8V3.76Zm5.95,4.83c-.29-.44-.44-1.12-.44-2.04,0-1.03.18-1.77.53-2.22.35-.45.94-.68,1.75-.68.41,0,.83.05,1.27.14V1.41h.79v7.73h-.79v-.37c-.55.32-1.1.47-1.66.47-.68,0-1.16-.22-1.45-.66Zm2.28-.15c.24-.06.45-.13.62-.21l.21-.1v-3.65c-.46-.09-.87-.13-1.21-.13-.56,0-.96.17-1.18.5s-.34.88-.34,1.64c0,.7.09,1.21.27,1.55.18.33.5.5.95.5.21,0,.43-.03.67-.09Zm3.22.39c-.26-.28-.39-.68-.39-1.21s.13-.9.39-1.15.68-.41,1.25-.46l1.68-.16v-.46c0-.68-.29-1.02-.88-1.02s-1.28.05-2.11.14l-.03-.61c.76-.16,1.46-.24,2.09-.24s1.05.14,1.32.41c.27.28.41.72.41,1.32v2.76c.02.27.23.42.62.47l-.03.64c-.56,0-.99-.14-1.27-.43-.63.29-1.28.43-1.93.43-.49,0-.87-.14-1.12-.42Zm2.69-.51l.25-.09v-1.78l-1.58.15c-.32.03-.55.12-.7.28s-.21.39-.21.69c0,.66.27.99.81.99.48,0,.96-.08,1.43-.25Zm3.48.76c-.2-.12-.35-.32-.44-.6-.09-.28-.13-.68-.13-1.19v-2.83h-.76v-.7h.76v-1.65h.79v1.65h1.7v.7h-1.7v2.57c0,.4.01.7.04.9.03.2.1.35.21.45.11.1.28.16.52.16l.95-.07.05.67c-.51.08-.89.12-1.14.12-.36,0-.65-.06-.85-.18Zm2.9-7.48h.79v.94h-.79v-.94Zm0,2.15h.79v5.38h-.79V3.76Zm2.96,5.21c-.34-.19-.57-.49-.72-.89s-.21-.93-.21-1.59.07-1.23.22-1.64c.15-.41.39-.71.73-.9.34-.19.78-.29,1.34-.29s1.01.1,1.34.29.57.5.72.9c.15.41.22.95.22,1.64s-.07,1.19-.21,1.59-.38.7-.71.89c-.33.19-.79.29-1.36.29s-1.02-.1-1.36-.29Zm2.27-.61c.21-.13.35-.34.43-.63.08-.29.12-.7.12-1.23,0-.56-.04-.99-.13-1.29s-.23-.52-.44-.65c-.21-.13-.5-.19-.89-.19s-.68.07-.89.19c-.21.13-.36.34-.45.65-.09.3-.13.73-.13,1.29,0,.52.04.93.12,1.23.08.29.23.51.44.64.21.13.52.2.91.2s.69-.07.9-.2Zm2.69-4.59h.79v.38c.32-.18.62-.3.88-.38.27-.07.55-.11.84-.11.46,0,.81.09,1.06.26s.43.45.53.82.16.9.16,1.57v2.84h-.79v-2.82c0-.51-.03-.9-.09-1.17s-.17-.47-.33-.59c-.16-.12-.39-.18-.68-.18-.24,0-.49.03-.74.09-.25.06-.46.13-.62.21l-.2.1v4.37h-.8V3.76Zm16.1,4.64v.74h-5.47c-.68,0-1.23-.06-1.63-.17-.4-.11-.69-.3-.87-.55-.18-.25-.27-.6-.27-1.03,0-.49.09-1.2.28-2.13l.66.03c-.03.2-.05.35-.05.45-.1.67-.15,1.16-.15,1.45,0,.31.06.55.19.72.12.17.33.3.62.37.29.08.69.11,1.21.11h3.06V1.41h.82v6.99h1.59Zm-3.9-3.51l-2.18.43-.1-.34.51-.14c-.24-.2-.36-.46-.36-.76,0-.27.09-.49.28-.68.19-.19.42-.29.72-.29.16,0,.32.03.46.09s.25.11.32.17l-.11.41s-.11-.07-.2-.11c-.09-.04-.19-.05-.29-.05-.19,0-.34.06-.45.18-.12.12-.18.27-.18.43,0,.21.08.37.25.49l1.22-.32.12.49Zm7.4,3.51v.74h-3.5v-.74h1.32V1.41h.82v6.99h1.36Zm7.42,0v.74h-.34c-.14,0-.28-.04-.43-.11-.15-.08-.29-.18-.42-.31v.42h-6.23v-.74h1.77c-.1-.62-.15-1.25-.15-1.88,0-.48.03-.96.09-1.43.06-.47.12-.85.19-1.15.17-.07.42-.14.75-.2.33-.06.67-.09,1.04-.09.87,0,1.51.22,1.93.65.41.43.62,1.15.62,2.15v1.54c.23.27.51.41.86.41h.34Zm-4.94-.83c.03.35.07.63.1.83h2.81v-1.96c0-.73-.15-1.26-.46-1.57-.31-.32-.77-.47-1.4-.47-.35,0-.66.04-.93.11-.11.62-.17,1.3-.17,2.01,0,.35.02.7.05,1.05Zm7.08-6.15v7.73h-2.14v-.74h1.32V1.41h.82Zm1.93,0h.82v7.73h-.82V1.41Zm5.04,10.4c-.1,0-.18-.01-.25-.02l-.22-.02v-.73c.36.03.58.04.67.04.36,0,.62-.14.8-.43.17-.28.26-.68.26-1.19V3.77h.82v5.49c0,1.71-.59,2.56-1.77,2.56-.11,0-.22,0-.32-.01Zm3.8-10.4h.82v7.73h-.82V1.41Zm5.73,2.97c.52.56.79,1.48.79,2.75v2.01h-4.3v-.74h3.48v-1.25c0-1.06-.21-1.81-.62-2.23-.41-.43-.89-.64-1.44-.64h-.87l-.05-.61c.07-.03.22-.06.43-.09.22-.03.43-.04.63-.04.78,0,1.43.28,1.95.85Zm10.19,4.02v.74h-3.56c-.63,0-1.13-.09-1.5-.27-.36-.18-.63-.47-.79-.86-.16-.39-.24-.92-.24-1.6s.08-1.2.23-1.6c.15-.4.41-.7.76-.88.35-.19.83-.28,1.43-.28.26,0,.67.01,1.21.04.55.03.96.05,1.24.08v4.63h1.22Zm-5.09-.83c.12.29.31.5.57.63.26.13.63.2,1.09.2h1.38v-3.93c-.63-.04-1.11-.06-1.45-.06-.65,0-1.11.15-1.37.46s-.4.82-.4,1.53c0,.5.06.89.18,1.17Zm.66-5.72h.81v.9h-.81v-.9Zm1.34,0h.81v.9h-.81v-.9Zm12.16,6.55v.74h-3c-.44,0-.83-.15-1.19-.45-.26.3-.6.45-1.02.45h-3.87v-.74h1.73v-4.1h.82v4.1h1.06c.33,0,.57-.14.71-.43.15-.28.22-.64.22-1.07v-2.61h.82v2.6c0,.44-.05.82-.15,1.14.11.09.24.18.41.25.16.08.33.11.49.11h1.12v-2.34c0-.27-.02-.62-.06-1.03s-.08-.83-.13-1.24l.67-.03c.09.41.17.84.24,1.3.07.46.1.82.1,1.09v2.25h1.01Zm7.96-3.34c.07.46.1.82.1,1.09v2.99h-1.99c-.44,0-.83-.15-1.19-.45-.26.3-.6.45-1.02.45h-3.87v-.74h1.73v-4.1h.82v4.1h1.06c.33,0,.57-.14.71-.43.15-.28.22-.64.22-1.07v-2.61h.82v2.6c0,.44-.05.82-.15,1.14.11.09.24.18.41.25.16.08.33.11.49.11h1.12v-2.34c0-.27-.02-.62-.06-1.03s-.08-.83-.13-1.24l.67-.03c.09.41.17.84.24,1.3Zm6.92,4.08h-1.34c-.04.9-.21,1.58-.5,2.01-.29.44-.74.66-1.36.66-.33,0-.87-.05-1.62-.16v-.73c.66.1,1.18.15,1.56.15.25,0,.45-.04.6-.14.15-.09.28-.27.37-.55.09-.28.14-.69.14-1.24h-1.57c-.78,0-1.29-.25-1.55-.74s-.38-1.14-.38-1.93c0-.67.06-1.21.19-1.63.13-.42.36-.74.7-.96.34-.22.8-.33,1.4-.33.29,0,.63.02,1.03.06.4.04.74.09,1,.14v4.64h1.32v.74Zm-4.54-1.29c.19.36.56.54,1.13.54h1.26v-4.03c-.39-.05-.72-.08-1.01-.08-.44,0-.77.08-1.02.24-.24.16-.41.4-.51.71s-.14.71-.14,1.2c0,.57.09,1.04.28,1.41Zm2.45-5.58l-2.18.43-.1-.34.51-.14c-.24-.2-.36-.46-.36-.76,0-.27.09-.49.28-.68.19-.19.42-.29.72-.29.16,0,.32.03.46.09s.25.11.32.17l-.11.41s-.11-.07-.2-.11c-.09-.04-.19-.05-.29-.05-.19,0-.34.06-.45.18s-.18.27-.18.43c0,.21.08.37.25.5l1.22-.32.12.5Zm7.69,2.02c.41.43.62,1.15.62,2.15v2.69h-6.23v-.74h1.77c-.1-.62-.15-1.25-.15-1.88,0-.48.03-.96.09-1.43.06-.47.12-.85.19-1.15.17-.07.42-.14.75-.2.33-.06.67-.09,1.04-.09.87,0,1.51.22,1.93.65Zm-3.12,3.27c.03.35.07.63.1.83h2.81v-1.96c0-.73-.15-1.26-.46-1.57-.31-.32-.77-.47-1.4-.47-.35,0-.66.04-.93.11-.11.62-.17,1.3-.17,2.01,0,.35.02.7.05,1.05Zm-223.34,3.78h-5.23c-1.68,0-3.06-1.37-3.06-3.06V3.06C30.44,1.37,31.81,0,33.49,0h5.23c1.68,0,3.06,1.37,3.06,3.05v5.23c0,1.68-1.37,3.06-3.06,3.06ZM33.49.38c-1.48,0-2.68,1.2-2.68,2.68v5.23c0,1.48,1.2,2.68,2.68,2.68h5.23c1.48,0,2.68-1.2,2.68-2.68V3.06c0-1.48-1.2-2.68-2.68-2.68h-5.23Zm5.64,3.42c-.19.09-.4.14-.6.17.1-.02.24-.19.3-.26.09-.11.16-.23.2-.37,0-.01,0-.02,0-.03-.01,0-.02,0-.03,0-.23.12-.47.21-.72.27-.02,0-.04,0-.05-.01-.02-.02-.04-.05-.06-.06-.11-.09-.22-.16-.35-.21-.17-.07-.35-.1-.53-.09-.18.01-.35.06-.51.14-.16.08-.3.2-.41.33-.12.14-.2.31-.24.49-.04.17-.04.34-.01.51,0,.03,0,.03-.02.03-.98-.15-1.8-.5-2.46-1.25-.03-.03-.04-.03-.07,0-.29.43-.15,1.13.21,1.48.05.05.1.09.15.13-.02,0-.26-.02-.48-.13-.03-.02-.04,0-.05.02,0,.05,0,.09,0,.14.06.44.36.85.78,1.01.05.02.1.04.16.05-.1.02-.19.04-.47.01-.03,0-.05.01-.03.04.21.56.65.73.98.82.04,0,.09,0,.13.02,0,0,0,0,0,0-.11.17-.49.29-.67.35-.32.11-.67.16-1.02.13-.05,0-.07,0-.08,0-.01,0,0,.02.02.04.07.05.14.09.21.13.22.11.44.21.68.27,1.22.34,2.6.09,3.51-.82.72-.71.97-1.7.97-2.69,0-.04.05-.06.07-.08.19-.14.34-.31.48-.5.03-.04.03-.08.03-.1h0s0-.02-.02,0Zm14.8,7.55h-5.23c-1.68,0-3.06-1.37-3.06-3.06V3.06c0-1.68,1.37-3.06,3.06-3.06h5.23c1.68,0,3.06,1.37,3.06,3.06v5.23c0,1.68-1.37,3.06-3.06,3.06ZM48.71.37c-1.48,0-2.68,1.2-2.68,2.68v5.23c0,1.48,1.2,2.68,2.68,2.68h5.23c1.48,0,2.68-1.2,2.68-2.68V3.06c0-1.48-1.2-2.68-2.68-2.68h-5.23Zm-.35,8.4l.46-1.71c-.26-.47-.39-.99-.39-1.52,0-1.74,1.41-3.15,3.15-3.15s3.15,1.41,3.15,3.15-1.41,3.15-3.15,3.15c-.52,0-1.04-.13-1.5-.38l-1.71.46Zm1.8-1.1l.11.06c.4.24.85.36,1.3.36,1.41,0,2.55-1.15,2.55-2.55s-1.15-2.55-2.55-2.55-2.55,1.15-2.55,2.55c0,.46.13.92.37,1.32l.07.11-.26.95.96-.26Zm2.58-1.69c-.13-.08-.3-.16-.45-.1-.12.05-.19.23-.27.32-.04.05-.09.06-.15.03-.44-.18-.78-.47-1.02-.87-.04-.06-.03-.11.02-.17.07-.09.17-.18.19-.3.02-.12-.03-.25-.08-.36-.06-.13-.13-.32-.26-.4-.12-.07-.28-.03-.39.06-.19.15-.28.39-.28.63,0,.07,0,.13.02.2.04.16.11.3.19.44.06.1.13.21.2.3.24.32.53.6.87.8.17.1.35.19.54.26.21.07.4.14.63.1.24-.05.48-.19.57-.42.03-.07.04-.14.03-.22-.03-.15-.23-.24-.36-.31Zm16.41,5.36h-5.23c-1.68,0-3.06-1.37-3.06-3.06V3.06c0-1.68,1.37-3.06,3.06-3.06h5.23c1.68,0,3.06,1.37,3.06,3.06v5.23c0,1.68-1.37,3.06-3.06,3.06ZM63.93.37c-1.48,0-2.68,1.2-2.68,2.68v5.23c0,1.48,1.2,2.68,2.68,2.68h5.23c1.48,0,2.68-1.2,2.68-2.68V3.06c0-1.48-1.2-2.68-2.68-2.68h-5.23Zm5.55,4.5c0-.73-.59-1.32-1.32-1.32h-3.37c-.73,0-1.32.59-1.32,1.32v1.57c0,.73.59,1.32,1.32,1.32h3.37c.73,0,1.32-.59,1.32-1.32v-1.57Zm-1.98.9l-1.51.75c-.06.03-.26-.01-.26-.08v-1.53c0-.07.2-.11.26-.08l1.44.79c.06.03.12.12.06.16Zm-43.99,5.57h-5.23c-1.68,0-3.06-1.37-3.06-3.06V3.06c0-1.68,1.37-3.06,3.06-3.06h5.23c1.68,0,3.06,1.37,3.06,3.06v5.23c0,1.68-1.37,3.06-3.06,3.06ZM18.27.37c-1.48,0-2.68,1.2-2.68,2.68v5.23c0,1.48,1.2,2.68,2.68,2.68h5.23c1.48,0,2.68-1.2,2.68-2.68V3.06c0-1.48-1.2-2.68-2.68-2.68h-5.23Zm4.32,3.23c-.21,0-.38.17-.38.38s.17.38.38.38.38-.17.38-.38-.17-.38-.38-.38Zm-1.68.48c-.87,0-1.58.71-1.58,1.58s.71,1.58,1.58,1.58,1.58-.71,1.58-1.58-.71-1.58-1.58-1.58Zm0,2.6c-.56,0-1.01-.45-1.01-1.01s.45-1.01,1.01-1.01,1.01.45,1.01,1.01-.45,1.01-1.01,1.01Zm1.26,2.2h-2.57c-1.06,0-1.93-.87-1.93-1.93v-2.57c0-1.06.87-1.93,1.93-1.93h2.57c1.06,0,1.93.87,1.93,1.93v2.57c0,1.06-.87,1.93-1.93,1.93Zm-2.57-5.82c-.73,0-1.33.59-1.33,1.33v2.57c0,.73.59,1.33,1.33,1.33h2.57c.73,0,1.33-.59,1.33-1.33v-2.57c0-.73-.59-1.33-1.33-1.33h-2.57Zm-11.32,8.28h-1.8s-.87-.22-.87-.22l-.8.22h-1.76c-1.68,0-3.06-1.37-3.06-3.06V3.06C0,1.37,1.37,0,3.06,0h5.23c1.68,0,3.06,1.37,3.06,3.06v5.23c0,1.68-1.37,3.06-3.06,3.06Zm-1.73-.37h1.73c1.48,0,2.68-1.2,2.68-2.68V3.06c0-1.48-1.2-2.68-2.68-2.68H3.06C1.58.37.37,1.58.37,3.06v5.23c0,1.48,1.2,2.68,2.68,2.68h1.73l.82-.23.95.23Zm1.25-3.53l.24-1.58h-1.52v-1.03c0-.43.21-.86.89-.86h.69v-1.35s-.63-.11-1.23-.11c-1.25,0-2.07.76-2.07,2.13v1.21h-1.39v1.58h1.39v3.72h1.71v-3.72h1.28Z" />
</svg>