<svg xmlns="http://www.w3.org/2000/svg" viewBox="0 0 31.59 40.65">
  <path class="cls-1"
    d="m20.63,33.35c0,.19-.05.38-.13.55-.06.13-.13.24-.25.33-.13.1-.27.12-.42.05-.18-.09-.3-.24-.36-.43-.06-.2-.08-.4-.07-.6.02-.3.08-.59.15-.88.08-.3.17-.6.27-.9.06-.18.11-.36.15-.55.03-.12.06-.25.08-.37,0-.03.01-.06.05-.06.04,0,.07.03.08.07.01.12,0,.24-.03.35-.07.32-.16.62-.26.93-.09.26-.16.53-.21.81-.03.16-.04.32-.02.47.03.15.09.28.22.37.17.12.4.06.5-.13.06-.11.06-.22.08-.34,0-.03,0-.06.02-.08.02-.04.04-.04.07-.02.03.02.05.05.06.1.02.11.02.22,0,.34Zm-1.63,3.05c0,.1.06.17.1.21.02.02.05.04.08.05.02,0,.08.02.14.02.03,0,.24-.07.3-.1.09-.05.18-.09.24-.15.03-.03.21-.19.29-.2-.03.06-.06.11-.1.16-.04.05-.07.1-.1.15-.13.21-.26.42-.34.66-.02.06-.06.19-.08.25-.02.07,0,.06,0,.13.17-.29.35-.62.6-.91.12-.14.25-.26.4-.39.14-.11.32-.26.55-.29.19-.02.31.07.35.25.03.13,0,.23-.03.33-.05.25-.2.46-.28.68,0,0,.02-.01.02-.02,0-.01.01-.03.02-.04.13-.23.23-.43.29-.61.08-.23.1-.41.09-.48,0-.09-.04-.16-.08-.21-.12-.14-.36-.12-.57-.02-.19.1-.35.22-.48.35-.14.13-.26.28-.37.43-.09.11-.18.23-.25.34-.03.04-.04.09-.08.12.02-.09.19-.32.2-.34.09-.14.17-.25.27-.39.05-.08.11-.18.1-.29,0-.09-.05-.12-.14-.1-.04.01-.35.25-.46.31-.06.03-.12.07-.17.09-.06.02-.12.04-.19.03-.08,0-.18-.06-.21-.14-.03-.07-.02-.15,0-.22M.84,27.01s0,0,0,0c0,0,.17.27.19.31.22.39.3.82.3,1.26,0,.31-.01.62,0,.93,0,.29.02.59.05.88.02.26.06.51.11.76.07.35.15.69.24,1.04.09.33.19.66.32.98.13.33.29.65.47.96.25.43.51.84.85,1.21.24.27.47.54.74.78.18.15.35.31.54.45.25.19.51.36.78.51.35.2.71.37,1.09.5.38.13.77.21,1.17.24.29.02.59.03.88,0,.66-.08,1.26-.33,1.8-.72.52-.38.9-.89,1.2-1.45.21-.39.39-.79.56-1.2.2-.47.34-.96.45-1.45.07-.29.11-.59.18-.88.08-.38.13-.76.15-1.14.02-.29.01-.58,0-.86,0-.38,0-.76-.03-1.13-.02-.26-.05-.53-.09-.79-.05-.35-.12-.71-.22-1.05-.02-.07-.04-.15-.07-.22.06.02.1.05.14.08.18.13.37.25.59.32.3.09.6.15.91.11.21-.02.42-.06.62-.16.42-.21.72-.54.93-.96.17-.34.28-.71.35-1.08.08-.4.12-.8.13-1.21,0-.16,0-.31-.01-.47,0-.31-.05-.62-.09-.92-.01-.08-.02-.16-.03-.25.18.22.36.43.56.62.21.2.44.37.71.49.27.12.55.2.86.19.13,0,.27-.02.4-.05.31-.06.58-.21.79-.45.24-.28.41-.61.51-.96.11-.38.14-.77.17-1.16.01-.2,0-.4,0-.61-.01-.49.02-.98.12-1.46.08-.38.26-.69.55-.94.25-.22.56-.33.88-.4.32-.07.64-.11.97-.1.25,0,.49.03.73.08.08.01.12,0,.14-.08.02-.07.03-.15.03-.22,0-.1-.01-.2-.01-.3,0-.35,0-.7,0-1.06,0-.04,0-.09,0-.13-.01-.16-.02-.32-.04-.48-.02-.19-.04-.38-.07-.57-.04-.26-.12-.51-.29-.72-.04-.05-.08-.09-.13-.12-.16-.12-.34-.19-.55-.19-.16,0-.32.01-.47.09-.11.05-.21.12-.31.18-.17.1-.33.21-.5.29-.26.13-.54.17-.83.11-.14-.03-.25-.1-.29-.25-.05-.14-.09-.28-.13-.43-.08-.31-.15-.63-.24-.94-.11-.4-.26-.79-.44-1.17-.27-.56-.59-1.08-.96-1.57-.18-.24-.36-.47-.55-.7-.04-.04-.05-.08-.03-.14.03-.06.04-.14.05-.21.12-.6.11-1.2.02-1.81-.02-.13-.04-.27-.07-.43.03.04.05.05.06.07.16.19.31.38.47.57.35.43.74.82,1.15,1.2.34.32.7.62,1.05.93.54.47,1.09.93,1.63,1.39.48.42.93.86,1.38,1.32.33.34.62.71.92,1.07.31.39.56.82.75,1.28.06.14.12.28.12.44,0,.21,0,.42-.02.64-.04.5-.2.97-.4,1.43-.17.39-.37.77-.56,1.15-.18.36-.4.69-.62,1.02-.23.35-.47.7-.7,1.05-.04.06-.05.13-.07.2,0,.02,0,.06.03.07.02,0,.06,0,.08-.02.21-.18.42-.36.63-.53.33-.27.65-.55.95-.86.25-.25.48-.52.68-.8.14-.19.23-.4.31-.62.13-.38.17-.78.21-1.18.02-.27.02-.54.02-.81,0-.12,0-.24-.01-.36-.02-.23-.02-.46-.06-.68-.05-.35-.12-.69-.19-1.04-.11-.52-.29-1.02-.51-1.5-.13-.29-.29-.56-.46-.82-.33-.48-.7-.93-1.11-1.35-.25-.25-.5-.5-.75-.74-.33-.3-.65-.6-.99-.89-.35-.3-.71-.58-1.06-.88-.26-.22-.52-.44-.78-.66-.17-.14-.32-.3-.48-.45-.11-.1-.21-.2-.31-.31-.09-.1-.18-.2-.28-.29-.04-.05-.09-.09-.14-.13-.2-.22-.39-.44-.58-.67-.14-.17-.28-.35-.41-.53-.08-.11-.15-.23-.22-.35-.15-.24-.3-.48-.45-.72-.08-.13-.14-.27-.22-.4-.18-.32-.36-.65-.51-.99-.08-.18-.15-.37-.22-.55-.11-.27-.21-.55-.32-.83-.08-.2-.15-.39-.23-.59-.02-.04-.03-.08-.09-.08-.06,0-.07.05-.08.09-.06.2-.06.41-.07.61,0,.23,0,.46.02.69.03.4.1.8.2,1.19.08.32.17.63.27.95.23.71.52,1.4.83,2.08.2.43.39.87.57,1.31.11.25.18.51.25.78.12.41.16.82.16,1.24,0,.05-.01.09-.02.17-.08-.09-.14-.17-.2-.24-.31-.35-.63-.69-.94-1.03-.3-.33-.59-.67-.85-1.04-.23-.33-.44-.67-.64-1.02-.25-.44-.5-.88-.64-1.37,0-.01,0-.02-.01-.03-.06-.21-.12-.41-.19-.62-.01-.04-.02-.08-.04-.12-.03-.07-.08-.11-.12-.1-.06.02-.07.07-.08.13-.05.26-.06.52-.06.79,0,.21,0,.42,0,.64.01.4.06.81.14,1.2.07.38.18.75.29,1.13.05.17.13.34.18.51.12.39.28.77.45,1.14.22.47.45.94.68,1.4.23.48.44.96.6,1.46.15.47.24.95.26,1.45,0,.34-.01.67-.03,1.01,0,.1,0,.19,0,.29,0,.04.03.07.07.08.04,0,.07,0,.09-.05.03-.09.06-.18.08-.27.04-.2.08-.4.11-.59.04-.27.08-.54.09-.81.01-.23,0-.46-.01-.68-.02-.31-.07-.62-.17-.91-.08-.26-.17-.52-.27-.77-.08-.22-.18-.43-.27-.65-.06-.16-.12-.32-.17-.48,0,0,.01,0,.02-.01.03.03.06.05.08.08.28.31.56.62.83.94.37.43.74.85,1.09,1.29.28.34.54.71.77,1.09.14.22.28.44.38.68.05.13.11.26.17.39.16.37.28.75.38,1.14.1.37.17.74.32,1.09.02.05.02.1,0,.15-.03.07-.06.15-.09.23-.09.25-.16.51-.18.77-.03.28-.07.56-.08.83-.02.4-.02.81-.09,1.2-.04.25-.09.49-.17.73-.1.31-.27.58-.55.77-.23.16-.49.22-.76.25-.31.03-.59-.08-.86-.2-.29-.13-.49-.36-.7-.59-.11-.12-.2-.25-.29-.39-.24-.34-.45-.69-.59-1.08-.14-.37-.21-.76-.16-1.15,0-.05.01-.11.02-.16.04-.26.18-.55.16-.59,0,0-.24.4-.28.99,0,.17.01.34.02.52-.02-.02-.02-.03-.03-.03-.12-.21-.23-.42-.34-.63-.28-.52-.56-1.04-.84-1.56-.12-.23-.24-.46-.36-.69-.11-.22-.23-.43-.34-.64-.12-.22-.24-.45-.36-.67-.13-.24-.26-.49-.4-.73-.11-.19-.21-.39-.32-.58,0-.01-.01-.03-.02-.04-.03-.02-.07-.05-.1-.04-.03,0-.05.05-.06.08-.01.04,0,.09,0,.13.02.25.05.5.06.75.01.51.02,1.02.02,1.54,0,.09,0,.18.07.25.02.01.02.04.03.06.13.26.27.52.4.78.09.18.18.37.28.55.1.2.21.4.31.61.23.46.46.93.7,1.38.31.58.64,1.14.91,1.74.26.57.48,1.15.51,1.79,0,.09.01.18,0,.27-.02.17-.05.35-.08.52-.06.33-.17.63-.38.9-.2.26-.41.5-.73.62-.02,0-.05.02-.07.03-.26.12-.54.16-.82.09-.31-.08-.58-.24-.81-.46-.07-.06-.13-.14-.19-.2-.17-.17-.31-.37-.45-.57-.25-.38-.45-.79-.67-1.19-.19-.35-.35-.7-.53-1.05-.02-.03-.03-.07-.04-.1.04-.04.07-.08.11-.12.39-.4.72-.84.95-1.35.12-.26.22-.52.26-.81.04-.26.04-.53.04-.79,0-.05-.01-.1-.02-.15-.02-.07-.07-.09-.12-.04-.02.02-.03.05-.04.08-.03.17-.05.34-.09.51-.05.23-.13.45-.23.67-.22.48-.52.9-.93,1.23-.07.06-.15.11-.23.17-.22-.42-.41-.83-.5-1.28-.06-.32-.08-.65-.02-.97.04-.23.11-.45.22-.66.03-.05.05-.1.08-.15,0,0-.02,0-.03,0-.37.51-.45,1.08-.4,1.7-.37-.84-.79-1.66-1.22-2.47.01-.02.01-.03.02-.03.03-.03.05-.05.08-.08.48-.49.91-1.02,1.28-1.6.12-.19.24-.38.35-.57.16-.28.32-.55.45-.84.14-.28.25-.58.37-.86.23-.51.41-1.04.56-1.58.08-.28.17-.56.23-.84.13-.57.25-1.14.36-1.71.05-.26.08-.52.12-.77.02-.13.03-.25.05-.4.02.05.03.07.03.09.06.43.14.86.25,1.27.18.64.35,1.27.6,1.89.13.33.25.66.39.99.13.32.28.63.43.94.2.4.4.8.6,1.2.03.07.07.13.11.2.17.29.35.57.53.86.03.05.07.09.12.13.04.04.09.02.1-.04,0-.06.01-.12,0-.18-.04-.36-.18-.69-.32-1.02-.15-.37-.32-.72-.49-1.08-.12-.26-.23-.52-.34-.78-.1-.24-.21-.48-.31-.72-.05-.12-.09-.24-.14-.37-.13-.35-.25-.7-.37-1.06-.03-.08-.05-.16-.07-.24-.13-.36-.23-.72-.33-1.08-.12-.43-.18-.86-.26-1.29-.06-.36-.11-.72-.16-1.07-.02-.14-.04-.27-.05-.41-.01-.12-.01-.24-.02-.36-.03-.28-.05-.56-.08-.83-.04-.36-.07-.71-.12-1.07-.03-.26-.07-.52-.11-.78-.04-.21-.09-.42-.13-.62-.05-.3-.14-.58-.26-.86-.06-.13-.13-.26-.21-.38-.05-.08-.13-.07-.17.02-.02.05-.03.1-.03.15,0,.12.01.23.02.35,0,.07.01.14.02.21.02.2.04.4.05.6.01.19.02.39.02.58,0,.29.02.58.02.87,0,.21,0,.41,0,.62,0,.23,0,.46,0,.68,0,.27-.02.54-.04.82,0,.16-.02.31-.04.47-.04.28-.08.55-.12.83-.05.35-.11.71-.17,1.06-.06.36-.17.71-.27,1.06-.13.47-.28.92-.46,1.37-.01.03-.03.06-.04.09-.01-.04-.01-.06-.01-.09-.02-.83-.35-1.41-.35-1.4,0,0,0,.01,0,.02s.21.41.26.97c.02.49-.09.96-.3,1.4-.18.37-.37.73-.57,1.08-.17.29-.36.57-.54.86-.02.03-.03.05-.05.07-.17.22-.35.44-.51.67-.12.17-.26.32-.41.46-.31.29-.68.46-1.1.5-.65.06-1.26-.34-1.44-.97-.24-.82.29-1.48.95-1.61.46-.09.9.17,1.03.61.14.49-.16.95-.66,1.03-.28.04-.54-.18-.6-.39-.04-.14-.04-.28.05-.42.01.05.02.09.03.13.04.14.13.22.27.25.14.03.25-.02.34-.13.1-.12.1-.29,0-.42-.09-.13-.26-.18-.41-.11-.51.22-.45.78-.17,1.01.24.21.6.22.89.03.43-.29.54-.83.26-1.27-.02-.03-.04-.06-.07-.11.04.01.07.02.1.03.38.13.76.09,1.13-.06.58-.25.88-.85.72-1.44-.19-.68-.92-1.02-1.54-.7-.45.23-.57.8-.25,1.18.22.26.63.32.91.12.16-.11.24-.32.2-.5-.05-.21-.2-.34-.41-.37-.21-.03-.4.12-.41.32-.01.21.14.37.34.37.21,0,.36-.17.35-.38,0-.02,0-.03,0-.05.13.14.06.46-.11.56-.22.13-.43.14-.65.01-.34-.2-.4-.72-.13-1.01.25-.26.68-.33,1.03-.17.45.2.73.82.48,1.36-.2.44-.58.63-1.04.67-.38.04-.74-.09-1.09-.21-.19-.07-.38-.11-.58-.07-.79.14-1.28.86-1.14,1.65.13.72.76,1.25,1.5,1.26.26,0,.51-.05.75-.15.03-.01.06-.02.11-.04-.01.03-.01.03-.02.04-.02.02-.04.05-.06.07-.6.65-1.25,1.25-1.95,1.79-1.09.83-2.28,1.49-3.57,1.98-.04.02-.08.03-.12.05-.05.03-.07.1-.06.16.01.05.06.07.1.07.19-.02.39-.03.58-.07.42-.08.84-.16,1.26-.26.68-.15,1.35-.35,2.01-.58.35-.12.69-.25,1.01-.43.45-.24.86-.53,1.24-.86.02-.02.05-.04.09-.06,0,.08,0,.14,0,.2,0,.51-.04,1.01-.14,1.51-.01.06-.02.11.02.17.33.64.66,1.28.99,1.92.07.14.14.29.21.44-.1.05-.18.1-.27.14-.49.25-1.01.44-1.51.66-.31.14-.63.25-.95.38-.39.16-.77.33-1.14.52-.42.22-.83.47-1.22.74-.37.26-.71.55-1.03.87-.02.02-.04.05-.06.06.22.3.44.59.66.88.02-.02.04-.04.07-.07.18-.17.35-.35.54-.5.29-.24.61-.46.92-.67.42-.28.86-.52,1.3-.76.3-.16.61-.3.92-.45.19-.09.37-.2.56-.28.42-.18.82-.41,1.22-.63.1-.06.21-.11.32-.17.02.03.04.06.05.09.05.11.1.22.15.32.5,1.06.99,2.12,1.42,3.21.28.72.58,1.43.75,2.18.08.37.16.74.18,1.12.02.34.02.69-.01,1.03-.03.24-.05.49-.1.73-.04.2-.09.41-.15.61-.09.31-.19.61-.3.91-.13.33-.29.64-.47.94-.18.29-.36.58-.58.84-.46.53-1,.92-1.68,1.13-.45.14-.91.16-1.37.1-.37-.05-.73-.12-1.08-.23-.35-.1-.69-.24-1.01-.4-.38-.2-.75-.43-1.09-.69-.17-.14-.35-.27-.51-.42-.28-.27-.52-.58-.74-.9-.27-.38-.46-.8-.58-1.24-.1-.37-.14-.75-.02-1.13.14-.44.39-.79.83-.97.5-.2.96-.12,1.37.19.41.31.55.86.38,1.37-.12.38-.51.66-.94.61-.46-.05-.77-.43-.73-.88.03-.27.19-.48.43-.54.27-.07.61.07.66.39.01.09.01.17-.02.25-.01.03-.03.06.03.09.02-.03.04-.07.05-.1.07-.22-.04-.51-.24-.64-.33-.21-.76-.08-.93.27-.19.39-.05.98.47,1.21.45.2,1.05.03,1.29-.5.19-.42.17-.84-.04-1.24-.38-.72-1.34-.98-2.07-.55-.37.21-.6.53-.73.93-.05.15-.08.31-.12.47,0-.01-.02-.03-.02-.05-.06-.28-.08-.57-.09-.86-.01-.3,0-.6.04-.89.05-.44.16-.87.35-1.27.2-.44.45-.86.73-1.24.02-.03.04-.06.07-.09-.2-.3-.42-.58-.69-.84-.13.22-.26.42-.36.63-.11.21-.2.43-.29.64-.09.22-.16.45-.22.68-.06.22-.1.45-.16.7-.1-.51-.55-1.07-.55-1.07Zm8.92,12.26s-.09-.06-.12-.09c-.08-.1-.09-.21-.03-.33.06-.11.15-.18.28-.19.21-.01.43.16.48.36.07.32-.18.64-.5.65-.38,0-.69-.27-.75-.62-.07-.41.17-.81.56-.93.29-.09.57-.04.83.11.12.07.23.16.31.27.19.27.37.55.6.78.16.17.32.34.49.49.22.2.48.35.75.49.4.21.82.34,1.27.37.24.02.48,0,.71-.04.51-.08.98-.24,1.39-.56.05-.04.1-.05.17-.04.52.07,1.05.11,1.58.12.82.02,1.63-.02,2.44-.13.65-.09,1.28-.22,1.9-.43.65-.22,1.23-.57,1.72-1.05.21-.2.41-.43.59-.67.31-.41.52-.86.73-1.32.05-.11.1-.23.15-.34.07.02.14.04.2.06.36.11.73.13,1.11.14.25,0,.49-.04.73-.12.38-.13.73-.34,1.03-.62.32-.3.6-.63.85-.98.28-.41.52-.85.73-1.3.19-.4.38-.81.52-1.23.11-.31.23-.62.32-.93.23-.8.44-1.61.56-2.45.04-.26.07-.52.11-.78.02-.12.03-.24.04-.36.03-.37.05-.74.07-1.12,0-.12.01-.23.01-.35,0-.34.01-.68,0-1.02,0-.25-.01-.5-.03-.75-.05-.55-.12-1.09-.24-1.63-.06-.24-.1-.49-.17-.73-.09-.31-.19-.61-.31-.91-.13-.32-.27-.64-.44-.94-.25-.44-.55-.85-.92-1.2-.22-.21-.47-.4-.75-.53-.3-.14-.63-.23-.96-.24-.31,0-.61.05-.91.16-.54.21-.96.54-1.28,1.01-.48.7-.71,1.49-.79,2.32-.06.64-.01,1.27.11,1.9.11.53.29,1.03.55,1.5.24.44.59.78.95,1.11.43.4.88.78,1.32,1.18.34.32.64.68.86,1.1.24.47.42.96.54,1.47.01.05.02.11.05.16.01.03.04.06.06.09.09-.04.12-.11.13-.19.06-.22.08-.45.09-.68.01-.36,0-.73-.04-1.09-.05-.41-.12-.82-.27-1.21-.19-.5-.45-.97-.83-1.35-.28-.28-.57-.54-.87-.79-.28-.24-.57-.47-.86-.7-.32-.25-.62-.51-.89-.82-.09-.1-.14-.19-.12-.32,0-.03,0-.05,0-.08.03-.31.11-.61.25-.89.11-.24.24-.46.41-.67.2-.25.45-.42.74-.56.44-.22.88-.23,1.34-.07.38.13.7.37.97.67.31.34.55.74.74,1.16.24.51.45,1.04.55,1.6.05.25.1.5.12.75.04.4.06.8.08,1.2.01.29.01.58-.02.86-.04.38-.1.76-.17,1.13-.21,1.18-.59,2.3-1.22,3.32-.25.41-.52.81-.83,1.17-.26.3-.55.58-.91.78-.21.11-.41.22-.63.31-.26.11-.54.16-.84.15,0-.05,0-.09.02-.13.04-.24.09-.48.12-.73.03-.23.05-.46.07-.69.02-.22.05-.45.06-.67,0-.45,0-.9-.01-1.36,0-.42-.05-.83-.12-1.24-.04-.28-.08-.56-.16-.84-.11-.41-.22-.82-.37-1.22-.18-.48-.38-.94-.62-1.39-.29-.54-.61-1.05-.97-1.53-.27-.37-.57-.72-.85-1.08-.24-.3-.46-.61-.71-.9-.27-.33-.5-.69-.76-1.03-.17-.23-.3-.48-.45-.72-.02-.03-.04-.07-.07-.1-.03-.03-.08-.05-.13-.08,0,.06,0,.09,0,.13-.02.36-.05.72-.07,1.09-.03.37-.07.73-.1,1.09-.04.42-.08.85-.12,1.27-.03.32-.06.63-.08.95-.02.26-.02.51-.02.77,0,.46-.01.92,0,1.38,0,.29.01.58.02.87.01.53.07,1.07.16,1.59.06.34.11.67.2,1,.12.47.27.94.43,1.4.14.38.28.77.46,1.13.04.09.09.18.14.27.06.11.11.23.18.34.12.19.25.38.36.57.13.22.29.41.46.59.26.25.53.49.8.74.03.02.05.05.08.08-.02.03-.03.05-.05.07-.21.3-.45.59-.69.87-.25.27-.51.52-.79.76-.17.14-.35.28-.53.42-.16.12-.33.25-.5.36-.19.12-.39.23-.57.35-.33.21-.68.38-1.04.53-.68.28-1.38.47-2.11.58-.35.06-.71.09-1.07.13-.05,0-.11.01-.17,0,.02-.02.02-.04.03-.05.37-.47.63-.99.82-1.55.04-.12.08-.25.11-.38.08-.3.17-.6.24-.91.07-.31.13-.62.18-.93.05-.28.09-.57.12-.85.03-.22.05-.44.07-.67.03-.27.06-.54.08-.81.02-.23.03-.46.05-.69.04-.43.07-.86.11-1.29.04-.37.08-.74.14-1.11.09-.56.27-1.1.5-1.62.08-.18.22-.33.36-.46.05-.04.1-.05.16-.04.18.04.31.14.39.31.01.02.03.04.04.06.07.09.14.08.18-.03,0-.02.01-.05.01-.08.01-.29,0-.58-.06-.86-.08-.43-.17-.86-.27-1.28-.06-.26-.22-.45-.48-.54-.22-.07-.44-.08-.65.04-.18.1-.31.24-.43.41-.17.26-.32.53-.43.82-.05.12-.1.24-.13.37-.08.27-.15.53-.21.8-.07.31-.15.62-.2.93-.05.35-.08.7-.12,1.06-.01.11-.01.22-.02.33-.02.22-.04.45-.06.67-.02.26-.03.51-.05.77-.02.27-.05.53-.08.8-.03.29-.05.59-.11.88-.08.45-.18.89-.28,1.34-.07.33-.18.65-.3.96-.14.37-.32.72-.55,1.04-.31.42-.68.79-1.14,1.05-.31.18-.65.28-1.01.33-.26.03-.51.03-.77-.01-.12-.02-.24-.05-.36-.08-.27-.06-.51-.17-.74-.32-.36-.23-.66-.54-.89-.91-.02-.03-.05-.07-.07-.1-.19.15-.37.3-.56.45.12.24.24.48.36.73-.09-.03-.16-.07-.24-.09-.29-.09-.58-.09-.85.08-.31.19-.49.47-.48.83,0,.4.28.74.69.83.35.08.74-.17.78-.54.04-.34-.27-.65-.61-.61-.23.03-.42.3-.31.54.06.13.17.2.3.18-.03-.01-.06-.02-.09-.04Zm14.96-9.45c-.07-.33-.26-.58-.54-.76-.41-.26-.84-.34-1.3-.15-.19.08-.34.2-.47.36-.21.26-.34.56-.42.89,0,.04-.02.09-.03.16-.02-.05-.03-.07-.03-.1-.11-.49-.15-.99-.18-1.49-.04-.59,0-1.17.05-1.76.04-.54.08-1.07.12-1.61.04-.53.09-1.07.13-1.6,0-.02,0-.04.02-.08.03.03.05.05.06.08.62.87,1.25,1.73,1.87,2.6.53.75.97,1.56,1.29,2.43.18.48.27.97.33,1.47.04.34.05.67.05,1.01,0,.35-.06.69-.14,1.03-.09.39-.19.77-.33,1.14-.04.1-.08.19-.12.29-.03.07-.04.08-.12.05-.24-.07-.46-.17-.68-.29-.75-.41-1.33-.98-1.77-1.71-.1-.16-.19-.33-.25-.5-.24-.71-.15-1.38.31-1.98.2-.26.49-.39.81-.39.45,0,.83.16,1.11.51.23.29.28.62.16.97,0,.02-.01.03-.02.05.12-.19.15-.4.1-.62Zm-15.68.38c-.19.29-.41.55-.66.79-.31.3-.65.56-1,.79-.16.11-.33.2-.5.29-.32.17-.65.33-1,.42-.26.07-.53.13-.8.17-.34.06-.68.11-1.02.16-.05,0-.1.03-.15.06-.05.03-.05.05,0,.1.07.07.16.09.25.11.26.06.52.1.79.11.24,0,.48.04.71.04.33,0,.66-.02.99-.03.29-.01.57-.08.85-.15.3-.08.56-.24.8-.44.3-.25.54-.54.74-.86.43-.68.7-1.41.83-2.2.03-.21.05-.42.06-.62.01-.19,0-.38-.04-.57-.02-.11-.03-.22-.08-.32-.08-.16-.2-.27-.38-.31-.22-.05-.43.01-.62.1-.21.1-.42.22-.63.34-.28.16-.55.33-.84.46-.32.14-.64.22-.99.21-.05,0-.09,0-.14-.02-.08-.02-.09-.04-.08-.12,0-.07.02-.14.04-.21.05-.15.1-.3.15-.45.12-.34.26-.67.44-.98.13-.21.27-.41.44-.58.14-.14.31-.24.5-.3.1-.03.2-.04.28.05.01.02.04.02.07.03.08.02.11,0,.12-.08,0-.02,0-.04,0-.06.04-.51.07-1.02.12-1.52,0-.1-.03-.16-.1-.22-.06-.05-.14-.08-.23-.09-.19-.02-.38.02-.53.14-.11.09-.22.17-.31.27-.41.43-.73.93-.96,1.48-.14.33-.26.66-.36,1-.15.49-.24.99-.24,1.5,0,.32,0,.63.04.95.03.26.08.51.22.74.11.19.26.33.48.37.25.05.5.02.75-.04.35-.09.66-.27.95-.47.21-.14.41-.29.63-.43.11-.07.23-.12.36-.17.1-.04.21-.03.31.07-.06.18-.16.33-.26.48Zm6.31,1.09c-.08.36-.21.7-.36,1.04-.06.14-.13.29-.21.42-.23.38-.47.75-.72,1.12-.15.23-.33.45-.5.66-.24.31-.49.6-.76.88-.16.16-.31.34-.48.51-.12.12-.24.23-.36.35-.09.1-.17.21-.25.31,0,0,0,.02-.01.03-.01.04-.03.08.01.1.02.01.07,0,.09-.02.17-.13.35-.26.51-.4.22-.18.43-.37.64-.56.18-.16.37-.32.55-.48.23-.2.43-.43.62-.68.17-.22.34-.45.5-.67.03-.04.05-.07.07-.11.14-.29.28-.58.42-.87.18-.39.33-.8.44-1.22.02-.1.06-.19.09-.3.03.03.05.04.06.05.08.12.16.25.24.38.05.07.08.16.17.22.02-.04.06-.06.07-.1.02-.12.04-.23.06-.35.04-.23-.04-.44-.14-.64-.08-.15-.18-.28-.3-.38-.09-.07-.1-.16-.09-.26.05-.3.06-.6.01-.9-.04-.26-.13-.49-.29-.69-.13-.16-.3-.23-.51-.17-.11.03-.2.09-.28.17-.17.16-.26.36-.32.58-.05.15-.07.31-.11.47-.03.14-.04.28-.02.42.04.22.12.41.32.52.12.07.24.13.36.19.16.08.32.16.49.24,0,.06-.01.09-.02.13Zm-.13-1.07c-.18-.09-.37-.18-.55-.27-.11-.05-.12-.1-.07-.21.07-.16.19-.27.35-.34.07-.03.15-.02.21.04.05.05.09.11.12.17.12.22.13.45.15.71-.08-.04-.15-.08-.21-.11Zm-10.45-6.92c.02-.07.05-.13.06-.2.06-.41.07-.82,0-1.23-.09-.54-.29-1.04-.64-1.46-.29-.35-.66-.56-1.11-.6-.37-.03-.7.06-.97.33-.36.35-.52.79-.54,1.28-.02.36.04.71.14,1.05.04.15.1.29.17.42.13.23.3.44.49.63.28.28.55.56.83.84,0,0,.02.01.03.02.13-.11.26-.22.39-.34-.04-.05-.06-.1-.1-.14-.13-.16-.27-.31-.41-.46-.11-.12-.24-.24-.35-.36-.19-.2-.39-.4-.57-.6-.24-.25-.25-.56-.21-.88.03-.24.13-.44.28-.61.21-.24.48-.38.8-.34.34.03.64.17.89.41.12.12.22.26.31.41.19.34.3.71.35,1.09.03.21.04.43.06.65,0,.05,0,.1.07.16.01-.02.03-.04.03-.06Zm-.68,3.76s-.02-.06-.03-.1c-.2-.65-.5-1.24-.92-1.78-.29-.37-.6-.7-1.01-.95-.46-.28-.95-.45-1.5-.42-.14,0-.19.06-.19.2,0,0,0,.01,0,.02.02.14.03.29.05.43.01.08.03.16.04.24.03.17.15.27.3.33.16.06.34.1.51.14.22.05.44.08.61.25.03.04.07.03.09-.02.02-.05.02-.1.03-.15,0-.08,0-.15,0-.24.04.02.07.02.09.04.09.07.19.13.28.21.58.54,1.01,1.18,1.31,1.91.15.35.25.72.32,1.1,0,.05.02.1.04.14.03.05.08.05.1,0,.02-.05.04-.1.06-.16.07-.28.11-.56.13-.84.04-.57,0-1.13-.13-1.68-.03-.13-.06-.25-.1-.4-.1.09-.18.17-.26.24-.04.04-.04.07-.03.13.05.2.11.4.15.61.05.25.08.5.08.77-.02,0-.02,0-.02-.01Zm14.05-13.07c.06.29.05.58.01.87-.07.44-.2.87-.42,1.26-.22.4-.45.8-.71,1.18-.3.44-.63.85-.94,1.28-.03.04-.04.11-.05.17,0,.05.04.07.09.05.02,0,.03-.02.05-.03.15-.12.3-.24.43-.37.26-.26.52-.53.77-.81.17-.18.33-.37.48-.58.37-.51.57-1.1.61-1.73.02-.31,0-.63-.04-.94-.02-.13-.06-.26-.09-.39-.02-.07-.06-.14-.16-.13-.04.08-.05.08-.03.17Zm-11.49,4.66c-.12.27-.23.53-.35.8-.13.32-.26.64-.32.99-.04.24-.06.48,0,.72.05.24.14.45.38.57.2.1.34.09.51-.05.05-.04.09-.09.13-.14.07-.11.14-.22.19-.34.12-.24.15-.51.12-.77,0-.02-.02-.05-.04-.06-.02,0-.06,0-.07.02-.03.04-.05.08-.07.13-.03.06-.04.13-.07.19-.03.07-.07.14-.12.2-.05.05-.11.1-.19.08-.12-.03-.23-.08-.3-.2-.11-.2-.13-.41-.1-.63.05-.36.18-.69.32-1.02.05-.12.11-.24.15-.36.04-.1.05-.21.01-.32-.09.04-.15.1-.18.18Zm11.14,5.87s0-.01,0-.02c0-.07-.03-.13-.09-.14-.07-.01-.07.05-.08.09-.04.13-.07.26-.11.39-.08.28-.23.53-.39.77-.29.44-.59.87-.94,1.26-.27.29-.53.58-.8.88-.08.09-.15.18-.23.28-.02.02-.03.05-.03.07,0,.03,0,.07.02.09.03.03.07.01.1-.01.05-.03.09-.06.14-.09.15-.1.3-.18.43-.29.3-.24.59-.5.85-.79.2-.22.41-.43.55-.69.1-.18.19-.35.26-.54.11-.33.19-.66.26-1,.02-.08.03-.17.05-.25,0,0,0,0,0,0ZM4.47,14.52c-.18.21-.35.43-.52.65-.24.31-.41.66-.52,1.04-.05.17-.07.35-.05.53.03.23.11.44.3.58.09.07.19.1.3.09.11,0,.21-.06.3-.12.3-.21.45-.51.54-.85.01-.05.04-.13-.03-.15-.07-.03-.1.04-.14.09-.07.08-.14.16-.22.24-.09.08-.19.09-.3.05-.16-.06-.27-.18-.31-.35-.06-.23-.03-.45.08-.65.08-.14.16-.27.25-.4.14-.21.29-.41.44-.62.05-.06.09-.13.07-.22-.1-.02-.14.05-.19.1Zm23.27,1.51c0,.07-.01.15-.02.22-.02.25-.23.37-.45.24-.2-.12-.31-.31-.36-.53-.08-.32-.04-.65-.03-.98,0-.25.03-.49.04-.74,0-.03,0-.05,0-.08-.05-.02-.09-.01-.11.03-.02.05-.05.11-.06.17-.05.34-.08.67-.09,1.01,0,.21.01.42.02.63,0,.21.04.41.11.61.07.22.2.41.37.56.08.07.18.12.29.13.13.02.22-.05.29-.15.13-.16.18-.36.22-.56.03-.19.04-.37-.02-.55-.02-.07-.06-.12-.13-.14-.05.06-.06.06-.06.11Zm-14.05,5.7c-.01.06-.02.13-.02.19,0,.1-.06.18-.13.24-.07.06-.15.08-.24.04-.11-.04-.19-.12-.26-.21-.16-.21-.21-.45-.2-.7.01-.32.06-.64.09-.96.02-.16.03-.31.05-.47,0-.03,0-.08-.04-.08-.03,0-.07.02-.08.04-.03.06-.06.12-.07.19-.09.38-.14.76-.16,1.15-.02.35-.03.7.06,1.05.06.24.17.44.34.61.08.08.18.13.28.15.1.02.18-.01.26-.08.16-.15.23-.34.29-.55.06-.2.07-.4.02-.6-.02-.07-.05-.12-.14-.16-.02.05-.04.09-.05.14Zm-3.88,12.62c-.1-.52-.14-1.04-.17-1.57-.01-.23-.01-.47-.02-.7,0-.09,0-.19-.05-.27-.03-.06-.05-.14-.13-.14-.08,0-.09.09-.12.15-.02.06-.03.11-.05.17-.09.31-.09.63-.09.95,0,.24,0,.48.04.71.04.27.07.53.1.8.02.11.04.22.07.36.15-.11.29-.2.43-.3,0-.06-.01-.11-.02-.16Zm.88-16.92c.11-.32.07-.65,0-.99-.01.02-.02.03-.02.04-.04.19-.16.34-.31.45-.09.07-.18.13-.27.19-.08.06-.16.11-.24.18-.12.09-.17.22-.18.37,0,.09.01.19.09.27.14-.27.33-.48.59-.62-.16.18-.36.35-.39.62.34,0,.63-.19.73-.51ZM2.53,28.39c-.03.09-.06.18-.1.26-.03.08-.07.16-.09.24-.04.14,0,.26.09.36.03.03.06.07.12.06-.01-.2,0-.4.11-.58-.01.17-.07.34.02.5.19-.11.3-.33.27-.54-.04-.28-.21-.49-.42-.67.04.13.04.25,0,.37ZM6.79,12.02c.1-.19.25-.32.45-.42-.04-.02-.06-.04-.08-.05-.15-.05-.29-.01-.4.11-.07.08-.12.16-.18.25-.12.17-.24.34-.46.39.25.07.49.09.74,0,.23-.08.37-.28.37-.55-.19.03-.31.16-.45.27Zm1.37,1.56c-.03-.21-.15-.35-.35-.41-.02,0-.04,0-.06,0,0,.16.1.27.16.39-.14-.1-.23-.24-.29-.41-.05.06-.07.12-.08.18,0,.1.03.18.1.25.08.08.16.15.24.23.09.09.16.19.18.33.08-.18.12-.35.1-.55Zm-2.59,2.45c.07-.01.13-.02.2-.03.07-.01.15-.03.22-.05.17-.06.26-.23.22-.39-.17.13-.36.22-.6.24.18-.09.36-.13.46-.31-.29-.13-.54-.02-.67.13-.11.13-.18.28-.23.44-.02.07-.03.13-.05.2.13-.14.29-.2.46-.23Zm3.95-5.25c0-.07,0-.13-.01-.2-.01-.1-.03-.21-.05-.31-.02-.13,0-.25.06-.37.01-.02.02-.04.03-.06,0,0-.01-.01-.02-.02-.11.08-.21.16-.32.25-.09.08-.16.18-.21.28-.08.17-.08.44.12.63.13-.14.11-.32.14-.48.05.2.05.21-.03.6.17-.03.28-.16.29-.32Zm-7.1,6.89c0,.14.12.26.26.26.14,0,.26-.12.26-.25,0-.14-.11-.26-.26-.26-.15,0-.26.11-.26.26ZM10.59,7.75c-.14,0-.26.12-.26.27,0,.15.12.27.27.27.15,0,.26-.12.26-.27,0-.15-.12-.26-.27-.26Zm13.58,23.05c0,.11,0,.22.02.33,0,.03,0,.05.02.08,0,.02.01.04.03.09.03-.17.12-.27.23-.36.07-.05.14-.11.2-.16.06-.05.1-.12.12-.2.01-.08,0-.15-.06-.2-.16.25-.16.26-.27.31.05-.1.15-.18.13-.32-.26.04-.41.19-.43.43Zm-1.37-1.95c.14-.09.22-.21.22-.35,0-.25-.13-.43-.3-.6.03.15-.01.28-.07.41-.03.06-.06.12-.08.18-.02.04-.04.09-.04.14-.02.13.04.23.16.28,0-.14,0-.28.09-.41,0,.12-.05.24.02.35ZM.76,27.04c-.08-.09-.17-.17-.26-.26.06.02.11.05.16.07.05.02.19.12.26.17.04.03.08.07.12.12.02.02.11.2.16.26.02-.03.04-.07.05-.09.07-.2,0-.45-.17-.58-.07-.05-.15-.1-.23-.14-.14-.08-.29-.15-.43-.24-.17-.1-.3-.24-.35-.43,0,0-.01-.01-.03-.03-.02.21-.03.4,0,.6.02.15.05.3.12.44.11.24.29.4.55.46.1.02.21.05.32.02-.02-.07-.09-.21-.24-.37ZM10.16,9.32s.15.28.18.34c.11-.13.13-.27.1-.42-.02-.13-.09-.23-.19-.31-.13-.11-.26-.21-.39-.32-.2-.17-.37-.35-.4-.66-.02.05-.05.15-.05.18-.03.14-.06.28-.08.42-.02.2,0,.4.07.6.12.29.42.5.72.5,0-.04-.03-.16-.05-.2-.03-.07-.08-.16-.1-.19-.07-.1-.15-.21-.23-.32.1.07.29.19.43.39Zm5.58,7.33c-.38.41-.31.61-.31.61.96-.19.43-1.38.43-1.38.05.48-.58.7-.68.97-.1.27.07.42.07.42.14-.43.49-.63.49-.63Z" />
</svg>